<?xml version="1.0" encoding="UTF-8" standalone="no"?>
<!DOCTYPE svg PUBLIC "-//W3C//DTD SVG 1.1//EN"
 "http://www.w3.org/Graphics/SVG/1.1/DTD/svg11.dtd">
<!-- Generated by graphviz version 2.40.1 (20161225.0304)
 -->
<!-- Title: dependencies Pages: 1 -->
<svg width="1398pt" height="458pt"
 viewBox="0.00 0.00 1398.00 458.00" xmlns="http://www.w3.org/2000/svg" xmlns:xlink="http://www.w3.org/1999/xlink">
<g id="graph0" class="graph" transform="scale(1 1) rotate(0) translate(4 454)">
<title>dependencies</title>
<polygon fill="#ffffff" stroke="transparent" points="-4,4 -4,-454 1394,-454 1394,4 -4,4"/>
<text text-anchor="start" x="674.0091" y="-42.4" font-family="sans-serif" font-weight="bold" font-size="14.00" fill="#000000">Legend</text>
<polygon fill="#ffffb3" stroke="transparent" points="461,-10 461,-30 481,-30 481,-10 461,-10"/>
<text text-anchor="start" x="484.629" y="-15.4" font-family="sans-serif" font-size="14.00" fill="#000000"> &#160;Declarations</text>
<polygon fill="#8dd3c7" stroke="transparent" points="574,-10 574,-30 594,-30 594,-10 574,-10"/>
<text text-anchor="start" x="597.7251" y="-15.4" font-family="sans-serif" font-size="14.00" fill="#000000"> &#160;Module</text>
<polygon fill="#80b1d3" stroke="transparent" points="660,-10 660,-30 680,-30 680,-10 660,-10"/>
<text text-anchor="start" x="683.7812" y="-15.4" font-family="sans-serif" font-size="14.00" fill="#000000"> &#160;Bootstrap</text>
<polygon fill="#fdb462" stroke="transparent" points="757,-10 757,-30 777,-30 777,-10 757,-10"/>
<text text-anchor="start" x="780.6732" y="-15.4" font-family="sans-serif" font-size="14.00" fill="#000000"> &#160;Providers</text>
<polygon fill="#fb8072" stroke="transparent" points="853,-10 853,-30 873,-30 873,-10 853,-10"/>
<text text-anchor="start" x="876.7258" y="-15.4" font-family="sans-serif" font-size="14.00" fill="#000000"> &#160;Exports</text>
<g id="clust1" class="cluster">
<title>cluster_AppModule</title>
<polygon fill="none" stroke="#000000" stroke-dasharray="1,5" points="298,-70 298,-366 1108,-366 1108,-70 298,-70"/>
</g>
<g id="clust3" class="cluster">
<title>cluster_AppModule_imports</title>
<polygon fill="none" stroke="#000000" points="492,-154 492,-358 1057,-358 1057,-154 492,-154"/>
</g>
<g id="clust6" class="cluster">
<title>cluster_AppModule_providers</title>
<polygon fill="none" stroke="#000000" points="306,-78 306,-130 1100,-130 1100,-78 306,-78"/>
</g>
<g id="clust7" class="cluster">
<title>cluster_AuthModule</title>
<polygon fill="none" stroke="#000000" stroke-dasharray="1,5" points="8,-146 8,-214 290,-214 290,-146 8,-146"/>
</g>
<g id="clust12" class="cluster">
<title>cluster_AuthModule_providers</title>
<polygon fill="none" stroke="#000000" points="16,-154 16,-206 282,-206 282,-154 16,-154"/>
</g>
<g id="clust13" class="cluster">
<title>cluster_CallModule</title>
<polygon fill="none" stroke="#000000" stroke-dasharray="1,5" points="146,-70 146,-138 290,-138 290,-70 146,-70"/>
</g>
<g id="clust18" class="cluster">
<title>cluster_CallModule_providers</title>
<polygon fill="none" stroke="#000000" points="154,-78 154,-130 282,-130 282,-78 154,-78"/>
</g>
<g id="clust19" class="cluster">
<title>cluster_ConfigModule</title>
<polygon fill="none" stroke="#000000" stroke-dasharray="1,5" points="1116,-222 1116,-290 1248,-290 1248,-222 1116,-222"/>
</g>
<g id="clust22" class="cluster">
<title>cluster_ConfigModule_exports</title>
<polygon fill="none" stroke="#000000" points="1124,-230 1124,-282 1240,-282 1240,-230 1124,-230"/>
</g>
<g id="clust31" class="cluster">
<title>cluster_RequestModule</title>
<polygon fill="none" stroke="#000000" stroke-dasharray="1,5" points="1116,-298 1116,-366 1254,-366 1254,-298 1116,-298"/>
</g>
<g id="clust34" class="cluster">
<title>cluster_RequestModule_exports</title>
<polygon fill="none" stroke="#000000" points="1124,-306 1124,-358 1246,-358 1246,-306 1124,-306"/>
</g>
<g id="clust37" class="cluster">
<title>cluster_ShoppingListModule</title>
<polygon fill="none" stroke="#000000" stroke-dasharray="1,5" points="897,-374 897,-442 1065,-442 1065,-374 897,-374"/>
</g>
<g id="clust40" class="cluster">
<title>cluster_ShoppingListModule_exports</title>
<polygon fill="none" stroke="#000000" points="905,-382 905,-434 1057,-434 1057,-382 905,-382"/>
</g>
<g id="clust43" class="cluster">
<title>cluster_UserModule</title>
<polygon fill="none" stroke="#000000" stroke-dasharray="1,5" points="1256,-222 1256,-290 1382,-290 1382,-222 1256,-222"/>
</g>
<g id="clust46" class="cluster">
<title>cluster_UserModule_exports</title>
<polygon fill="none" stroke="#000000" points="1264,-230 1264,-282 1374,-282 1374,-230 1264,-230"/>
</g>
<g id="clust49" class="cluster">
<title>cluster_UsersModule</title>
<polygon fill="none" stroke="#000000" stroke-dasharray="1,5" points="1116,-154 1116,-206 1224,-206 1224,-154 1116,-154"/>
</g>
<!-- AddressModel -->
<g id="node1" class="node">
<title>AddressModel</title>
<polygon fill="#8dd3c7" stroke="#000000" points="598.4217,-198 595.4217,-202 574.4217,-202 571.4217,-198 499.5783,-198 499.5783,-162 598.4217,-162 598.4217,-198"/>
<text text-anchor="middle" x="549" y="-175.8" font-family="Times,serif" font-size="14.00" fill="#000000">AddressModel</text>
</g>
<!-- AppModule -->
<g id="node9" class="node">
<title>AppModule</title>
<polygon fill="#8dd3c7" stroke="#000000" points="483.6571,-350 480.6571,-354 459.6571,-354 456.6571,-350 400.3429,-350 400.3429,-314 483.6571,-314 483.6571,-350"/>
<text text-anchor="middle" x="442" y="-327.8" font-family="Times,serif" font-size="14.00" fill="#000000">AppModule</text>
</g>
<!-- AddressModel&#45;&gt;AppModule -->
<g id="edge1" class="edge">
<title>AddressModel&#45;&gt;AppModule</title>
<path fill="none" stroke="#000000" d="M499.6076,-180C481.307,-180 464.9261,-180 464.9261,-180 464.9261,-180 464.9261,-303.9667 464.9261,-303.9667"/>
<polygon fill="#000000" stroke="#000000" points="461.4262,-303.9667 464.9261,-313.9667 468.4262,-303.9667 461.4262,-303.9667"/>
</g>
<!-- AuthModule -->
<g id="node2" class="node">
<title>AuthModule</title>
<polygon fill="#8dd3c7" stroke="#000000" points="687.5482,-274 684.5482,-278 663.5482,-278 660.5482,-274 600.4518,-274 600.4518,-238 687.5482,-238 687.5482,-274"/>
<text text-anchor="middle" x="644" y="-251.8" font-family="Times,serif" font-size="14.00" fill="#000000">AuthModule</text>
</g>
<!-- AuthModule&#45;&gt;AppModule -->
<g id="edge2" class="edge">
<title>AuthModule&#45;&gt;AppModule</title>
<path fill="none" stroke="#000000" d="M600.2613,-265C550.9384,-265 477.5275,-265 477.5275,-265 477.5275,-265 477.5275,-303.692 477.5275,-303.692"/>
<polygon fill="#000000" stroke="#000000" points="474.0276,-303.6919 477.5275,-313.692 481.0276,-303.692 474.0276,-303.6919"/>
</g>
<!-- CallModule -->
<g id="node3" class="node">
<title>CallModule</title>
<polygon fill="#8dd3c7" stroke="#000000" points="699.3823,-198 696.3823,-202 675.3823,-202 672.3823,-198 616.6177,-198 616.6177,-162 699.3823,-162 699.3823,-198"/>
<text text-anchor="middle" x="658" y="-175.8" font-family="Times,serif" font-size="14.00" fill="#000000">CallModule</text>
</g>
<!-- CallModule&#45;&gt;AppModule -->
<g id="edge3" class="edge">
<title>CallModule&#45;&gt;AppModule</title>
<path fill="none" stroke="#000000" d="M693.6073,-198.2733C693.6073,-236.6253 693.6073,-322 693.6073,-322 693.6073,-322 493.8303,-322 493.8303,-322"/>
<polygon fill="#000000" stroke="#000000" points="493.8303,-318.5001 483.8303,-322 493.8302,-325.5001 493.8303,-318.5001"/>
</g>
<!-- ConfigModule -->
<g id="node4" class="node">
<title>ConfigModule</title>
<polygon fill="#8dd3c7" stroke="#000000" points="945.4386,-198 942.4386,-202 921.4386,-202 918.4386,-198 846.5614,-198 846.5614,-162 945.4386,-162 945.4386,-198"/>
<text text-anchor="middle" x="896" y="-175.8" font-family="Times,serif" font-size="14.00" fill="#000000">ConfigModule</text>
</g>
<!-- ConfigModule&#45;&gt;AuthModule -->
<g id="edge14" class="edge">
<title>ConfigModule&#45;&gt;AuthModule</title>
<path fill="none" stroke="#000000" d="M863.2198,-198.0109C863.2198,-220.4852 863.2198,-256 863.2198,-256 863.2198,-256 697.5729,-256 697.5729,-256"/>
<polygon fill="#000000" stroke="#000000" points="697.5729,-252.5001 687.5729,-256 697.5728,-259.5001 697.5729,-252.5001"/>
</g>
<!-- ConfigModule&#45;&gt;AppModule -->
<g id="edge4" class="edge">
<title>ConfigModule&#45;&gt;AppModule</title>
<path fill="none" stroke="#000000" d="M879.6583,-198.1246C879.6583,-239.6261 879.6583,-338 879.6583,-338 879.6583,-338 493.9645,-338 493.9645,-338"/>
<polygon fill="#000000" stroke="#000000" points="493.9646,-334.5001 483.9645,-338 493.9645,-341.5001 493.9646,-334.5001"/>
</g>
<!-- ConfigService  -->
<g id="node18" class="node">
<title>ConfigService </title>
<polygon fill="#fb8072" stroke="#000000" points="1232.3661,-274 1131.6339,-274 1131.6339,-238 1232.3661,-238 1232.3661,-274"/>
<text text-anchor="middle" x="1182" y="-251.8" font-family="Times,serif" font-size="14.00" fill="#000000">ConfigService </text>
</g>
<!-- ConfigModule&#45;&gt;ConfigService  -->
<g id="edge19" class="edge">
<title>ConfigModule&#45;&gt;ConfigService </title>
<path fill="none" stroke="#000000" stroke-dasharray="5,2" d="M929.087,-198.0511C929.087,-212.373 929.087,-230 929.087,-230 929.087,-230 1173.7639,-230 1173.7639,-230 1173.7639,-230 1173.7639,-230.7942 1173.7639,-230.7942"/>
<polygon fill="#000000" stroke="#000000" points="1170.264,-227.9421 1173.7639,-237.9421 1177.264,-227.9422 1170.264,-227.9421"/>
</g>
<!-- DatabaseModule -->
<g id="node5" class="node">
<title>DatabaseModule</title>
<polygon fill="#8dd3c7" stroke="#000000" points="828.3501,-198 825.3501,-202 804.3501,-202 801.3501,-198 717.6499,-198 717.6499,-162 828.3501,-162 828.3501,-198"/>
<text text-anchor="middle" x="773" y="-175.8" font-family="Times,serif" font-size="14.00" fill="#000000">DatabaseModule</text>
</g>
<!-- DatabaseModule&#45;&gt;AppModule -->
<g id="edge5" class="edge">
<title>DatabaseModule&#45;&gt;AppModule</title>
<path fill="none" stroke="#000000" d="M773,-198.0935C773,-237.9889 773,-330 773,-330 773,-330 493.9214,-330 493.9214,-330"/>
<polygon fill="#000000" stroke="#000000" points="493.9214,-326.5001 483.9214,-330 493.9213,-333.5001 493.9214,-326.5001"/>
</g>
<!-- RequestModule -->
<g id="node6" class="node">
<title>RequestModule</title>
<polygon fill="#8dd3c7" stroke="#000000" points="1049.1514,-274 1046.1514,-278 1025.1514,-278 1022.1514,-274 944.8486,-274 944.8486,-238 1049.1514,-238 1049.1514,-274"/>
<text text-anchor="middle" x="997" y="-251.8" font-family="Times,serif" font-size="14.00" fill="#000000">RequestModule</text>
</g>
<!-- ShoppingListModule -->
<g id="node7" class="node">
<title>ShoppingListModule</title>
<polygon fill="#8dd3c7" stroke="#000000" points="1048.5014,-350 1045.5014,-354 1024.5014,-354 1021.5014,-350 913.4986,-350 913.4986,-314 1048.5014,-314 1048.5014,-350"/>
<text text-anchor="middle" x="981" y="-327.8" font-family="Times,serif" font-size="14.00" fill="#000000">ShoppingListModule</text>
</g>
<!-- RequestModule&#45;&gt;ShoppingListModule -->
<g id="edge23" class="edge">
<title>RequestModule&#45;&gt;ShoppingListModule</title>
<path fill="none" stroke="#000000" d="M996.5877,-274.0109C996.5877,-274.0109 996.5877,-303.855 996.5877,-303.855"/>
<polygon fill="#000000" stroke="#000000" points="993.0877,-303.8549 996.5877,-313.855 1000.0877,-303.855 993.0877,-303.8549"/>
</g>
<!-- RequestModule&#45;&gt;AppModule -->
<g id="edge6" class="edge">
<title>RequestModule&#45;&gt;AppModule</title>
<path fill="none" stroke="#000000" d="M944.7751,-265C920.154,-265 896.0969,-265 896.0969,-265 896.0969,-265 896.0969,-342 896.0969,-342 896.0969,-342 493.9064,-342 493.9064,-342"/>
<polygon fill="#000000" stroke="#000000" points="493.9064,-338.5001 483.9064,-342 493.9064,-345.5001 493.9064,-338.5001"/>
</g>
<!-- RequestService  -->
<g id="node19" class="node">
<title>RequestService </title>
<polygon fill="#fb8072" stroke="#000000" points="1238.0794,-350 1131.9206,-350 1131.9206,-314 1238.0794,-314 1238.0794,-350"/>
<text text-anchor="middle" x="1185" y="-327.8" font-family="Times,serif" font-size="14.00" fill="#000000">RequestService </text>
</g>
<!-- RequestModule&#45;&gt;RequestService  -->
<g id="edge21" class="edge">
<title>RequestModule&#45;&gt;RequestService </title>
<path fill="none" stroke="#000000" stroke-dasharray="5,2" d="M1049.528,-256C1085.9732,-256 1128.0002,-256 1128.0002,-256 1128.0002,-256 1128.0002,-332 1128.0002,-332 1128.0002,-332 1128.3741,-332 1128.3741,-332"/>
<polygon fill="#000000" stroke="#000000" points="1121.7402,-335.5003 1131.7401,-332 1121.74,-328.5003 1121.7402,-335.5003"/>
</g>
<!-- ShoppingListModule&#45;&gt;AppModule -->
<g id="edge7" class="edge">
<title>ShoppingListModule&#45;&gt;AppModule</title>
<path fill="none" stroke="#000000" d="M913.281,-346C913.281,-346 493.9006,-346 493.9006,-346"/>
<polygon fill="#000000" stroke="#000000" points="493.9006,-342.5001 483.9006,-346 493.9005,-349.5001 493.9006,-342.5001"/>
</g>
<!-- ShoppingListService  -->
<g id="node20" class="node">
<title>ShoppingListService </title>
<polygon fill="#fb8072" stroke="#000000" points="1049.4292,-426 912.5708,-426 912.5708,-390 1049.4292,-390 1049.4292,-426"/>
<text text-anchor="middle" x="981" y="-403.8" font-family="Times,serif" font-size="14.00" fill="#000000">ShoppingListService </text>
</g>
<!-- ShoppingListModule&#45;&gt;ShoppingListService  -->
<g id="edge24" class="edge">
<title>ShoppingListModule&#45;&gt;ShoppingListService </title>
<path fill="none" stroke="#000000" stroke-dasharray="5,2" d="M981,-350.0109C981,-350.0109 981,-379.855 981,-379.855"/>
<polygon fill="#000000" stroke="#000000" points="977.5001,-379.8549 981,-389.855 984.5001,-379.855 977.5001,-379.8549"/>
</g>
<!-- UserModule -->
<g id="node8" class="node">
<title>UserModule</title>
<polygon fill="#8dd3c7" stroke="#000000" points="1048.9762,-198 1045.9762,-202 1024.9762,-202 1021.9762,-198 963.0238,-198 963.0238,-162 1048.9762,-162 1048.9762,-198"/>
<text text-anchor="middle" x="1006" y="-175.8" font-family="Times,serif" font-size="14.00" fill="#000000">UserModule</text>
</g>
<!-- UserModule&#45;&gt;AuthModule -->
<g id="edge15" class="edge">
<title>UserModule&#45;&gt;AuthModule</title>
<path fill="none" stroke="#000000" d="M997.4024,-198.1944C997.4024,-206.2782 997.4024,-214 997.4024,-214 997.4024,-214 652.1662,-214 652.1662,-214 652.1662,-214 652.1662,-227.9445 652.1662,-227.9445"/>
<polygon fill="#000000" stroke="#000000" points="648.6663,-227.9444 652.1662,-237.9445 655.6663,-227.9445 648.6663,-227.9444"/>
</g>
<!-- UserModule&#45;&gt;RequestModule -->
<g id="edge20" class="edge">
<title>UserModule&#45;&gt;RequestModule</title>
<path fill="none" stroke="#000000" d="M1014.5976,-198.0109C1014.5976,-198.0109 1014.5976,-227.855 1014.5976,-227.855"/>
<polygon fill="#000000" stroke="#000000" points="1011.0977,-227.8549 1014.5976,-237.855 1018.0977,-227.855 1011.0977,-227.8549"/>
</g>
<!-- UserModule&#45;&gt;AppModule -->
<g id="edge8" class="edge">
<title>UserModule&#45;&gt;AppModule</title>
<path fill="none" stroke="#000000" d="M980.2071,-198.0579C980.2071,-202.4945 980.2071,-206 980.2071,-206 980.2071,-206 471.2268,-206 471.2268,-206 471.2268,-206 471.2268,-303.9473 471.2268,-303.9473"/>
<polygon fill="#000000" stroke="#000000" points="467.7269,-303.9472 471.2268,-313.9473 474.7269,-303.9473 467.7269,-303.9472"/>
</g>
<!-- UsersService  -->
<g id="node21" class="node">
<title>UsersService </title>
<polygon fill="#fb8072" stroke="#000000" points="1365.8493,-274 1272.1507,-274 1272.1507,-238 1365.8493,-238 1365.8493,-274"/>
<text text-anchor="middle" x="1319" y="-251.8" font-family="Times,serif" font-size="14.00" fill="#000000">UsersService </text>
</g>
<!-- UserModule&#45;&gt;UsersService  -->
<g id="edge26" class="edge">
<title>UserModule&#45;&gt;UsersService </title>
<path fill="none" stroke="#000000" stroke-dasharray="5,2" d="M1031.7929,-198.0555C1031.7929,-209.439 1031.7929,-222 1031.7929,-222 1031.7929,-222 1319,-222 1319,-222 1319,-222 1319,-227.8056 1319,-227.8056"/>
<polygon fill="#000000" stroke="#000000" points="1315.5001,-227.8055 1319,-237.8056 1322.5001,-227.8056 1315.5001,-227.8055"/>
</g>
<!-- AppService -->
<g id="node10" class="node">
<title>AppService</title>
<ellipse fill="#fdb462" stroke="#000000" cx="371" cy="-104" rx="56.7406" ry="18"/>
<text text-anchor="middle" x="371" y="-99.8" font-family="Times,serif" font-size="14.00" fill="#000000">AppService</text>
</g>
<!-- AppService&#45;&gt;AppModule -->
<g id="edge9" class="edge">
<title>AppService&#45;&gt;AppModule</title>
<path fill="none" stroke="#000000" d="M413.896,-115.9373C413.896,-115.9373 413.896,-303.8357 413.896,-303.8357"/>
<polygon fill="#000000" stroke="#000000" points="410.3961,-303.8357 413.896,-313.8357 417.3961,-303.8358 410.3961,-303.8357"/>
</g>
<!-- ArticlesService -->
<g id="node11" class="node">
<title>ArticlesService</title>
<ellipse fill="#fdb462" stroke="#000000" cx="1021" cy="-104" rx="70.6162" ry="18"/>
<text text-anchor="middle" x="1021" y="-99.8" font-family="Times,serif" font-size="14.00" fill="#000000">ArticlesService</text>
</g>
<!-- ArticlesService&#45;&gt;AppModule -->
<g id="edge10" class="edge">
<title>ArticlesService&#45;&gt;AppModule</title>
<path fill="none" stroke="#000000" d="M956.7269,-111.6511C956.7269,-119.9414 956.7269,-132 956.7269,-132 956.7269,-132 458.6254,-132 458.6254,-132 458.6254,-132 458.6254,-303.8986 458.6254,-303.8986"/>
<polygon fill="#000000" stroke="#000000" points="455.1255,-303.8986 458.6254,-313.8986 462.1255,-303.8986 455.1255,-303.8986"/>
</g>
<!-- UsersModule -->
<g id="node22" class="node">
<title>UsersModule</title>
<polygon fill="#8dd3c7" stroke="#000000" points="1215.9218,-198 1212.9218,-202 1191.9218,-202 1188.9218,-198 1124.0782,-198 1124.0782,-162 1215.9218,-162 1215.9218,-198"/>
<text text-anchor="middle" x="1170" y="-175.8" font-family="Times,serif" font-size="14.00" fill="#000000">UsersModule</text>
</g>
<!-- ArticlesService&#45;&gt;UsersModule -->
<g id="edge28" class="edge">
<title>ArticlesService&#45;&gt;UsersModule</title>
<path fill="none" stroke="#000000" d="M1070.5113,-116.8924C1070.5113,-138.5755 1070.5113,-180 1070.5113,-180 1070.5113,-180 1114.0415,-180 1114.0415,-180"/>
<polygon fill="#000000" stroke="#000000" points="1114.0416,-183.5001 1124.0415,-180 1114.0415,-176.5001 1114.0416,-183.5001"/>
</g>
<!-- RequestService -->
<g id="node12" class="node">
<title>RequestService</title>
<ellipse fill="#fdb462" stroke="#000000" cx="659" cy="-104" rx="71.2036" ry="18"/>
<text text-anchor="middle" x="659" y="-99.8" font-family="Times,serif" font-size="14.00" fill="#000000">RequestService</text>
</g>
<!-- RequestService&#45;&gt;RequestModule -->
<g id="edge22" class="edge">
<title>RequestService&#45;&gt;RequestModule</title>
<path fill="none" stroke="#000000" d="M711.5304,-116.1921C711.5304,-150.7735 711.5304,-247 711.5304,-247 711.5304,-247 934.6405,-247 934.6405,-247"/>
<polygon fill="#000000" stroke="#000000" points="934.6405,-250.5001 944.6405,-247 934.6404,-243.5001 934.6405,-250.5001"/>
</g>
<!-- RequestService&#45;&gt;AppModule -->
<g id="edge11" class="edge">
<title>RequestService&#45;&gt;AppModule</title>
<path fill="none" stroke="#000000" d="M705.4857,-117.8871C705.4857,-166.4883 705.4857,-326 705.4857,-326 705.4857,-326 493.7501,-326 493.7501,-326"/>
<polygon fill="#000000" stroke="#000000" points="493.7501,-322.5001 483.7501,-326 493.7501,-329.5001 493.7501,-322.5001"/>
</g>
<!-- ShoppingListService -->
<g id="node13" class="node">
<title>ShoppingListService</title>
<ellipse fill="#fdb462" stroke="#000000" cx="840" cy="-104" rx="92.0741" ry="18"/>
<text text-anchor="middle" x="840" y="-99.8" font-family="Times,serif" font-size="14.00" fill="#000000">ShoppingListService</text>
</g>
<!-- ShoppingListService&#45;&gt;ShoppingListModule -->
<g id="edge25" class="edge">
<title>ShoppingListService&#45;&gt;ShoppingListModule</title>
<path fill="none" stroke="#000000" d="M840.6625,-122.2455C840.6625,-173.9967 840.6625,-318 840.6625,-318 840.6625,-318 903.2977,-318 903.2977,-318"/>
<polygon fill="#000000" stroke="#000000" points="903.2977,-321.5001 913.2977,-318 903.2976,-314.5001 903.2977,-321.5001"/>
</g>
<!-- ShoppingListService&#45;&gt;AppModule -->
<g id="edge12" class="edge">
<title>ShoppingListService&#45;&gt;AppModule</title>
<path fill="none" stroke="#000000" d="M834.5437,-122.0477C834.5437,-176.2681 834.5437,-334 834.5437,-334 834.5437,-334 494.0091,-334 494.0091,-334"/>
<polygon fill="#000000" stroke="#000000" points="494.0091,-330.5001 484.0091,-334 494.009,-337.5001 494.0091,-330.5001"/>
</g>
<!-- UsersService -->
<g id="node14" class="node">
<title>UsersService</title>
<ellipse fill="#fdb462" stroke="#000000" cx="508" cy="-104" rx="61.9519" ry="18"/>
<text text-anchor="middle" x="508" y="-99.8" font-family="Times,serif" font-size="14.00" fill="#000000">UsersService</text>
</g>
<!-- UsersService&#45;&gt;UserModule -->
<g id="edge27" class="edge">
<title>UsersService&#45;&gt;UserModule</title>
<path fill="none" stroke="#000000" d="M534.8828,-120.336C534.8828,-130.6353 534.8828,-142 534.8828,-142 534.8828,-142 1006,-142 1006,-142 1006,-142 1006,-151.8903 1006,-151.8903"/>
<polygon fill="#000000" stroke="#000000" points="1002.5001,-151.8903 1006,-161.8903 1009.5001,-151.8904 1002.5001,-151.8903"/>
</g>
<!-- UsersService&#45;&gt;AppModule -->
<g id="edge13" class="edge">
<title>UsersService&#45;&gt;AppModule</title>
<path fill="none" stroke="#000000" d="M452.3248,-112.1146C452.3248,-112.1146 452.3248,-303.8529 452.3248,-303.8529"/>
<polygon fill="#000000" stroke="#000000" points="448.8249,-303.8529 452.3248,-313.8529 455.8249,-303.853 448.8249,-303.8529"/>
</g>
<!-- AuthService -->
<g id="node15" class="node">
<title>AuthService</title>
<ellipse fill="#fdb462" stroke="#000000" cx="83" cy="-180" rx="59.1083" ry="18"/>
<text text-anchor="middle" x="83" y="-175.8" font-family="Times,serif" font-size="14.00" fill="#000000">AuthService</text>
</g>
<!-- AuthService&#45;&gt;AuthModule -->
<g id="edge16" class="edge">
<title>AuthService&#45;&gt;AuthModule</title>
<path fill="none" stroke="#000000" d="M83,-198.0109C83,-220.4852 83,-256 83,-256 83,-256 590.4461,-256 590.4461,-256"/>
<polygon fill="#000000" stroke="#000000" points="590.4461,-259.5001 600.4461,-256 590.446,-252.5001 590.4461,-259.5001"/>
</g>
<!-- JwtStrategy -->
<g id="node16" class="node">
<title>JwtStrategy</title>
<ellipse fill="#fdb462" stroke="#000000" cx="217" cy="-180" rx="56.7561" ry="18"/>
<text text-anchor="middle" x="217" y="-175.8" font-family="Times,serif" font-size="14.00" fill="#000000">JwtStrategy</text>
</g>
<!-- JwtStrategy&#45;&gt;AuthModule -->
<g id="edge17" class="edge">
<title>JwtStrategy&#45;&gt;AuthModule</title>
<path fill="none" stroke="#000000" d="M217,-198.308C217,-218.1455 217,-247 217,-247 217,-247 590.3102,-247 590.3102,-247"/>
<polygon fill="#000000" stroke="#000000" points="590.3102,-250.5001 600.3102,-247 590.3101,-243.5001 590.3102,-250.5001"/>
</g>
<!-- CallService -->
<g id="node17" class="node">
<title>CallService</title>
<ellipse fill="#fdb462" stroke="#000000" cx="218" cy="-104" rx="56.1724" ry="18"/>
<text text-anchor="middle" x="218" y="-99.8" font-family="Times,serif" font-size="14.00" fill="#000000">CallService</text>
</g>
<!-- CallService&#45;&gt;CallModule -->
<g id="edge18" class="edge">
<title>CallService&#45;&gt;CallModule</title>
<path fill="none" stroke="#000000" d="M217.7709,-122.1467C217.7709,-135.7395 217.7709,-152 217.7709,-152 217.7709,-152 658,-152 658,-152 658,-152 658,-152.9793 658,-152.9793"/>
<polygon fill="#000000" stroke="#000000" points="654.5001,-151.793 658,-161.793 661.5001,-151.7931 654.5001,-151.793"/>
</g>
</g>
</svg>
