<?xml version="1.0" encoding="UTF-8" standalone="no"?>
<!DOCTYPE svg PUBLIC "-//W3C//DTD SVG 1.1//EN"
 "http://www.w3.org/Graphics/SVG/1.1/DTD/svg11.dtd">
<!-- Generated by graphviz version 2.40.1 (20161225.0304)
 -->
<!-- Title: dependencies Pages: 1 -->
<svg width="504pt" height="284pt"
 viewBox="0.00 0.00 504.00 284.00" xmlns="http://www.w3.org/2000/svg" xmlns:xlink="http://www.w3.org/1999/xlink">
<g id="graph0" class="graph" transform="scale(1 1) rotate(0) translate(4 280)">
<title>dependencies</title>
<polygon fill="#ffffff" stroke="transparent" points="-4,4 -4,-280 500,-280 500,4 -4,4"/>
<text text-anchor="start" x="227.0091" y="-42.4" font-family="sans-serif" font-weight="bold" font-size="14.00" fill="#000000">Legend</text>
<polygon fill="#ffffb3" stroke="transparent" points="14,-10 14,-30 34,-30 34,-10 14,-10"/>
<text text-anchor="start" x="37.629" y="-15.4" font-family="sans-serif" font-size="14.00" fill="#000000"> &#160;Declarations</text>
<polygon fill="#8dd3c7" stroke="transparent" points="127,-10 127,-30 147,-30 147,-10 127,-10"/>
<text text-anchor="start" x="150.7251" y="-15.4" font-family="sans-serif" font-size="14.00" fill="#000000"> &#160;Module</text>
<polygon fill="#80b1d3" stroke="transparent" points="213,-10 213,-30 233,-30 233,-10 213,-10"/>
<text text-anchor="start" x="236.7812" y="-15.4" font-family="sans-serif" font-size="14.00" fill="#000000"> &#160;Bootstrap</text>
<polygon fill="#fdb462" stroke="transparent" points="310,-10 310,-30 330,-30 330,-10 310,-10"/>
<text text-anchor="start" x="333.6732" y="-15.4" font-family="sans-serif" font-size="14.00" fill="#000000"> &#160;Providers</text>
<polygon fill="#fb8072" stroke="transparent" points="406,-10 406,-30 426,-30 426,-10 406,-10"/>
<text text-anchor="start" x="429.7258" y="-15.4" font-family="sans-serif" font-size="14.00" fill="#000000"> &#160;Exports</text>
<g id="clust1" class="cluster">
<title>cluster_RequestModule</title>
<polygon fill="none" stroke="#000000" stroke-dasharray="1,5" points="106,-70 106,-268 390,-268 390,-70 106,-70"/>
</g>
<g id="clust3" class="cluster">
<title>cluster_RequestModule_imports</title>
<polygon fill="none" stroke="#000000" points="280,-78 280,-130 382,-130 382,-78 280,-78"/>
</g>
<g id="clust4" class="cluster">
<title>cluster_RequestModule_exports</title>
<polygon fill="none" stroke="#000000" points="196,-208 196,-260 318,-260 318,-208 196,-208"/>
</g>
<g id="clust6" class="cluster">
<title>cluster_RequestModule_providers</title>
<polygon fill="none" stroke="#000000" points="114,-78 114,-130 272,-130 272,-78 114,-78"/>
</g>
<!-- UserModule -->
<g id="node1" class="node">
<title>UserModule</title>
<polygon fill="#8dd3c7" stroke="#000000" points="373.9762,-122 370.9762,-126 349.9762,-126 346.9762,-122 288.0238,-122 288.0238,-86 373.9762,-86 373.9762,-122"/>
<text text-anchor="middle" x="331" y="-99.8" font-family="Times,serif" font-size="14.00" fill="#000000">UserModule</text>
</g>
<!-- RequestModule -->
<g id="node2" class="node">
<title>RequestModule</title>
<polygon fill="#8dd3c7" stroke="#000000" points="309.1514,-187 306.1514,-191 285.1514,-191 282.1514,-187 204.8486,-187 204.8486,-151 309.1514,-151 309.1514,-187"/>
<text text-anchor="middle" x="257" y="-164.8" font-family="Times,serif" font-size="14.00" fill="#000000">RequestModule</text>
</g>
<!-- UserModule&#45;&gt;RequestModule -->
<g id="edge1" class="edge">
<title>UserModule&#45;&gt;RequestModule</title>
<path fill="none" stroke="#000000" d="M298.6687,-122.1061C298.6687,-122.1061 298.6687,-140.991 298.6687,-140.991"/>
<polygon fill="#000000" stroke="#000000" points="295.1687,-140.9909 298.6687,-150.991 302.1687,-140.991 295.1687,-140.9909"/>
</g>
<!-- RequestService  -->
<g id="node3" class="node">
<title>RequestService </title>
<polygon fill="#fb8072" stroke="#000000" points="310.0794,-252 203.9206,-252 203.9206,-216 310.0794,-216 310.0794,-252"/>
<text text-anchor="middle" x="257" y="-229.8" font-family="Times,serif" font-size="14.00" fill="#000000">RequestService </text>
</g>
<!-- RequestModule&#45;&gt;RequestService  -->
<g id="edge2" class="edge">
<title>RequestModule&#45;&gt;RequestService </title>
<path fill="none" stroke="#000000" stroke-dasharray="5,2" d="M257,-187.1061C257,-187.1061 257,-205.991 257,-205.991"/>
<polygon fill="#000000" stroke="#000000" points="253.5001,-205.9909 257,-215.991 260.5001,-205.991 253.5001,-205.9909"/>
</g>
<!-- RequestService -->
<g id="node4" class="node">
<title>RequestService</title>
<ellipse fill="#fdb462" stroke="#000000" cx="193" cy="-104" rx="71.2036" ry="18"/>
<text text-anchor="middle" x="193" y="-99.8" font-family="Times,serif" font-size="14.00" fill="#000000">RequestService</text>
</g>
<!-- RequestService&#45;&gt;RequestModule -->
<g id="edge3" class="edge">
<title>RequestService&#45;&gt;RequestModule</title>
<path fill="none" stroke="#000000" d="M234.3882,-118.7495C234.3882,-118.7495 234.3882,-140.5882 234.3882,-140.5882"/>
<polygon fill="#000000" stroke="#000000" points="230.8883,-140.5881 234.3882,-150.5882 237.8883,-140.5882 230.8883,-140.5881"/>
</g>
</g>
</svg>
