<?xml version="1.0" encoding="UTF-8" standalone="no"?>
<!DOCTYPE svg PUBLIC "-//W3C//DTD SVG 1.1//EN"
 "http://www.w3.org/Graphics/SVG/1.1/DTD/svg11.dtd">
<!-- Generated by graphviz version 2.40.1 (20161225.0304)
 -->
<!-- Title: dependencies Pages: 1 -->
<svg width="504pt" height="284pt"
 viewBox="0.00 0.00 504.00 284.00" xmlns="http://www.w3.org/2000/svg" xmlns:xlink="http://www.w3.org/1999/xlink">
<g id="graph0" class="graph" transform="scale(1 1) rotate(0) translate(4 280)">
<title>dependencies</title>
<polygon fill="#ffffff" stroke="transparent" points="-4,4 -4,-280 500,-280 500,4 -4,4"/>
<text text-anchor="start" x="227.0091" y="-42.4" font-family="sans-serif" font-weight="bold" font-size="14.00" fill="#000000">Legend</text>
<polygon fill="#ffffb3" stroke="transparent" points="14,-10 14,-30 34,-30 34,-10 14,-10"/>
<text text-anchor="start" x="37.629" y="-15.4" font-family="sans-serif" font-size="14.00" fill="#000000"> &#160;Declarations</text>
<polygon fill="#8dd3c7" stroke="transparent" points="127,-10 127,-30 147,-30 147,-10 127,-10"/>
<text text-anchor="start" x="150.7251" y="-15.4" font-family="sans-serif" font-size="14.00" fill="#000000"> &#160;Module</text>
<polygon fill="#80b1d3" stroke="transparent" points="213,-10 213,-30 233,-30 233,-10 213,-10"/>
<text text-anchor="start" x="236.7812" y="-15.4" font-family="sans-serif" font-size="14.00" fill="#000000"> &#160;Bootstrap</text>
<polygon fill="#fdb462" stroke="transparent" points="310,-10 310,-30 330,-30 330,-10 310,-10"/>
<text text-anchor="start" x="333.6732" y="-15.4" font-family="sans-serif" font-size="14.00" fill="#000000"> &#160;Providers</text>
<polygon fill="#fb8072" stroke="transparent" points="406,-10 406,-30 426,-30 426,-10 406,-10"/>
<text text-anchor="start" x="429.7258" y="-15.4" font-family="sans-serif" font-size="14.00" fill="#000000"> &#160;Exports</text>
<g id="clust1" class="cluster">
<title>cluster_AudioStorageModule</title>
<polygon fill="none" stroke="#000000" stroke-dasharray="1,5" points="77,-70 77,-268 419,-268 419,-70 77,-70"/>
</g>
<g id="clust3" class="cluster">
<title>cluster_AudioStorageModule_imports</title>
<polygon fill="none" stroke="#000000" points="297,-78 297,-130 411,-130 411,-78 297,-78"/>
</g>
<g id="clust4" class="cluster">
<title>cluster_AudioStorageModule_exports</title>
<polygon fill="none" stroke="#000000" points="182,-208 182,-260 338,-260 338,-208 182,-208"/>
</g>
<g id="clust6" class="cluster">
<title>cluster_AudioStorageModule_providers</title>
<polygon fill="none" stroke="#000000" points="85,-78 85,-130 289,-130 289,-78 85,-78"/>
</g>
<!-- ConfigModule -->
<g id="node1" class="node">
<title>ConfigModule</title>
<polygon fill="#8dd3c7" stroke="#000000" points="403.4386,-122 400.4386,-126 379.4386,-126 376.4386,-122 304.5614,-122 304.5614,-86 403.4386,-86 403.4386,-122"/>
<text text-anchor="middle" x="354" y="-99.8" font-family="Times,serif" font-size="14.00" fill="#000000">ConfigModule</text>
</g>
<!-- AudioStorageModule -->
<g id="node2" class="node">
<title>AudioStorageModule</title>
<polygon fill="#8dd3c7" stroke="#000000" points="328.8104,-187 325.8104,-191 304.8104,-191 301.8104,-187 191.1896,-187 191.1896,-151 328.8104,-151 328.8104,-187"/>
<text text-anchor="middle" x="260" y="-164.8" font-family="Times,serif" font-size="14.00" fill="#000000">AudioStorageModule</text>
</g>
<!-- ConfigModule&#45;&gt;AudioStorageModule -->
<g id="edge1" class="edge">
<title>ConfigModule&#45;&gt;AudioStorageModule</title>
<path fill="none" stroke="#000000" d="M316.7181,-122.1061C316.7181,-122.1061 316.7181,-140.991 316.7181,-140.991"/>
<polygon fill="#000000" stroke="#000000" points="313.2182,-140.9909 316.7181,-150.991 320.2182,-140.991 313.2182,-140.9909"/>
</g>
<!-- AudioStorageService  -->
<g id="node3" class="node">
<title>AudioStorageService </title>
<polygon fill="#fb8072" stroke="#000000" points="329.738,-252 190.262,-252 190.262,-216 329.738,-216 329.738,-252"/>
<text text-anchor="middle" x="260" y="-229.8" font-family="Times,serif" font-size="14.00" fill="#000000">AudioStorageService </text>
</g>
<!-- AudioStorageModule&#45;&gt;AudioStorageService  -->
<g id="edge2" class="edge">
<title>AudioStorageModule&#45;&gt;AudioStorageService </title>
<path fill="none" stroke="#000000" stroke-dasharray="5,2" d="M260,-187.1061C260,-187.1061 260,-205.991 260,-205.991"/>
<polygon fill="#000000" stroke="#000000" points="256.5001,-205.9909 260,-215.991 263.5001,-205.991 256.5001,-205.9909"/>
</g>
<!-- AudioStorageService -->
<g id="node4" class="node">
<title>AudioStorageService</title>
<ellipse fill="#fdb462" stroke="#000000" cx="187" cy="-104" rx="93.7591" ry="18"/>
<text text-anchor="middle" x="187" y="-99.8" font-family="Times,serif" font-size="14.00" fill="#000000">AudioStorageService</text>
</g>
<!-- AudioStorageService&#45;&gt;AudioStorageModule -->
<g id="edge3" class="edge">
<title>AudioStorageService&#45;&gt;AudioStorageModule</title>
<path fill="none" stroke="#000000" d="M235.9872,-119.4041C235.9872,-119.4041 235.9872,-140.9397 235.9872,-140.9397"/>
<polygon fill="#000000" stroke="#000000" points="232.4873,-140.9397 235.9872,-150.9397 239.4873,-140.9398 232.4873,-140.9397"/>
</g>
</g>
</svg>
