<?xml version="1.0" encoding="UTF-8" standalone="no"?>
<!DOCTYPE svg PUBLIC "-//W3C//DTD SVG 1.1//EN"
 "http://www.w3.org/Graphics/SVG/1.1/DTD/svg11.dtd">
<!-- Generated by graphviz version 2.40.1 (20161225.0304)
 -->
<!-- Title: dependencies Pages: 1 -->
<svg width="504pt" height="284pt"
 viewBox="0.00 0.00 504.00 284.00" xmlns="http://www.w3.org/2000/svg" xmlns:xlink="http://www.w3.org/1999/xlink">
<g id="graph0" class="graph" transform="scale(1 1) rotate(0) translate(4 280)">
<title>dependencies</title>
<polygon fill="#ffffff" stroke="transparent" points="-4,4 -4,-280 500,-280 500,4 -4,4"/>
<text text-anchor="start" x="227.0091" y="-42.4" font-family="sans-serif" font-weight="bold" font-size="14.00" fill="#000000">Legend</text>
<polygon fill="#ffffb3" stroke="transparent" points="14,-10 14,-30 34,-30 34,-10 14,-10"/>
<text text-anchor="start" x="37.629" y="-15.4" font-family="sans-serif" font-size="14.00" fill="#000000"> &#160;Declarations</text>
<polygon fill="#8dd3c7" stroke="transparent" points="127,-10 127,-30 147,-30 147,-10 127,-10"/>
<text text-anchor="start" x="150.7251" y="-15.4" font-family="sans-serif" font-size="14.00" fill="#000000"> &#160;Module</text>
<polygon fill="#80b1d3" stroke="transparent" points="213,-10 213,-30 233,-30 233,-10 213,-10"/>
<text text-anchor="start" x="236.7812" y="-15.4" font-family="sans-serif" font-size="14.00" fill="#000000"> &#160;Bootstrap</text>
<polygon fill="#fdb462" stroke="transparent" points="310,-10 310,-30 330,-30 330,-10 310,-10"/>
<text text-anchor="start" x="333.6732" y="-15.4" font-family="sans-serif" font-size="14.00" fill="#000000"> &#160;Providers</text>
<polygon fill="#fb8072" stroke="transparent" points="406,-10 406,-30 426,-30 426,-10 406,-10"/>
<text text-anchor="start" x="429.7258" y="-15.4" font-family="sans-serif" font-size="14.00" fill="#000000"> &#160;Exports</text>
<g id="clust1" class="cluster">
<title>cluster_ShoppingListModule</title>
<polygon fill="none" stroke="#000000" stroke-dasharray="1,5" points="76,-70 76,-268 420,-268 420,-70 76,-70"/>
</g>
<g id="clust3" class="cluster">
<title>cluster_ShoppingListModule_imports</title>
<polygon fill="none" stroke="#000000" points="292,-78 292,-130 412,-130 412,-78 292,-78"/>
</g>
<g id="clust4" class="cluster">
<title>cluster_ShoppingListModule_exports</title>
<polygon fill="none" stroke="#000000" points="184,-208 184,-260 336,-260 336,-208 184,-208"/>
</g>
<g id="clust6" class="cluster">
<title>cluster_ShoppingListModule_providers</title>
<polygon fill="none" stroke="#000000" points="84,-78 84,-130 284,-130 284,-78 84,-78"/>
</g>
<!-- RequestModule -->
<g id="node1" class="node">
<title>RequestModule</title>
<polygon fill="#8dd3c7" stroke="#000000" points="404.1514,-122 401.1514,-126 380.1514,-126 377.1514,-122 299.8486,-122 299.8486,-86 404.1514,-86 404.1514,-122"/>
<text text-anchor="middle" x="352" y="-99.8" font-family="Times,serif" font-size="14.00" fill="#000000">RequestModule</text>
</g>
<!-- ShoppingListModule -->
<g id="node2" class="node">
<title>ShoppingListModule</title>
<polygon fill="#8dd3c7" stroke="#000000" points="327.5014,-187 324.5014,-191 303.5014,-191 300.5014,-187 192.4986,-187 192.4986,-151 327.5014,-151 327.5014,-187"/>
<text text-anchor="middle" x="260" y="-164.8" font-family="Times,serif" font-size="14.00" fill="#000000">ShoppingListModule</text>
</g>
<!-- RequestModule&#45;&gt;ShoppingListModule -->
<g id="edge1" class="edge">
<title>RequestModule&#45;&gt;ShoppingListModule</title>
<path fill="none" stroke="#000000" d="M313.5877,-122.1061C313.5877,-122.1061 313.5877,-140.991 313.5877,-140.991"/>
<polygon fill="#000000" stroke="#000000" points="310.0877,-140.9909 313.5877,-150.991 317.0877,-140.991 310.0877,-140.9909"/>
</g>
<!-- ShoppingListService  -->
<g id="node3" class="node">
<title>ShoppingListService </title>
<polygon fill="#fb8072" stroke="#000000" points="328.4292,-252 191.5708,-252 191.5708,-216 328.4292,-216 328.4292,-252"/>
<text text-anchor="middle" x="260" y="-229.8" font-family="Times,serif" font-size="14.00" fill="#000000">ShoppingListService </text>
</g>
<!-- ShoppingListModule&#45;&gt;ShoppingListService  -->
<g id="edge2" class="edge">
<title>ShoppingListModule&#45;&gt;ShoppingListService </title>
<path fill="none" stroke="#000000" stroke-dasharray="5,2" d="M260,-187.1061C260,-187.1061 260,-205.991 260,-205.991"/>
<polygon fill="#000000" stroke="#000000" points="256.5001,-205.9909 260,-215.991 263.5001,-205.991 256.5001,-205.9909"/>
</g>
<!-- ShoppingListService -->
<g id="node4" class="node">
<title>ShoppingListService</title>
<ellipse fill="#fdb462" stroke="#000000" cx="184" cy="-104" rx="92.0741" ry="18"/>
<text text-anchor="middle" x="184" y="-99.8" font-family="Times,serif" font-size="14.00" fill="#000000">ShoppingListService</text>
</g>
<!-- ShoppingListService&#45;&gt;ShoppingListModule -->
<g id="edge3" class="edge">
<title>ShoppingListService&#45;&gt;ShoppingListModule</title>
<path fill="none" stroke="#000000" d="M234.2682,-119.4041C234.2682,-119.4041 234.2682,-140.9397 234.2682,-140.9397"/>
<polygon fill="#000000" stroke="#000000" points="230.7683,-140.9397 234.2682,-150.9397 237.7683,-140.9398 230.7683,-140.9397"/>
</g>
</g>
</svg>
