<?xml version="1.0" encoding="UTF-8" standalone="no"?>
<!DOCTYPE svg PUBLIC "-//W3C//DTD SVG 1.1//EN"
 "http://www.w3.org/Graphics/SVG/1.1/DTD/svg11.dtd">
<!-- Generated by graphviz version 2.40.1 (20161225.0304)
 -->
<!-- Title: dependencies Pages: 1 -->
<svg width="2031pt" height="211pt"
 viewBox="0.00 0.00 2031.00 211.00" xmlns="http://www.w3.org/2000/svg" xmlns:xlink="http://www.w3.org/1999/xlink">
<g id="graph0" class="graph" transform="scale(1 1) rotate(0) translate(4 207)">
<title>dependencies</title>
<polygon fill="#ffffff" stroke="transparent" points="-4,4 -4,-207 2027,-207 2027,4 -4,4"/>
<text text-anchor="start" x="990.5091" y="-42.4" font-family="sans-serif" font-weight="bold" font-size="14.00" fill="#000000">Legend</text>
<polygon fill="#ffffb3" stroke="transparent" points="777.5,-10 777.5,-30 797.5,-30 797.5,-10 777.5,-10"/>
<text text-anchor="start" x="801.129" y="-15.4" font-family="sans-serif" font-size="14.00" fill="#000000"> &#160;Declarations</text>
<polygon fill="#8dd3c7" stroke="transparent" points="890.5,-10 890.5,-30 910.5,-30 910.5,-10 890.5,-10"/>
<text text-anchor="start" x="914.2251" y="-15.4" font-family="sans-serif" font-size="14.00" fill="#000000"> &#160;Module</text>
<polygon fill="#80b1d3" stroke="transparent" points="976.5,-10 976.5,-30 996.5,-30 996.5,-10 976.5,-10"/>
<text text-anchor="start" x="1000.2812" y="-15.4" font-family="sans-serif" font-size="14.00" fill="#000000"> &#160;Bootstrap</text>
<polygon fill="#fdb462" stroke="transparent" points="1073.5,-10 1073.5,-30 1093.5,-30 1093.5,-10 1073.5,-10"/>
<text text-anchor="start" x="1097.1732" y="-15.4" font-family="sans-serif" font-size="14.00" fill="#000000"> &#160;Providers</text>
<polygon fill="#fb8072" stroke="transparent" points="1169.5,-10 1169.5,-30 1189.5,-30 1189.5,-10 1169.5,-10"/>
<text text-anchor="start" x="1193.2258" y="-15.4" font-family="sans-serif" font-size="14.00" fill="#000000"> &#160;Exports</text>
<g id="clust1" class="cluster">
<title>cluster_AppModule</title>
<polygon fill="none" stroke="#000000" stroke-dasharray="1,5" points="8,-70 8,-195 2015,-195 2015,-70 8,-70"/>
</g>
<g id="clust3" class="cluster">
<title>cluster_AppModule_imports</title>
<polygon fill="none" stroke="#000000" points="1022,-78 1022,-130 2007,-130 2007,-78 1022,-78"/>
</g>
<g id="clust6" class="cluster">
<title>cluster_AppModule_providers</title>
<polygon fill="none" stroke="#000000" points="16,-78 16,-130 1014,-130 1014,-78 16,-78"/>
</g>
<!-- AudioStorageModule -->
<g id="node1" class="node">
<title>AudioStorageModule</title>
<polygon fill="#8dd3c7" stroke="#000000" points="1998.8104,-122 1995.8104,-126 1974.8104,-126 1971.8104,-122 1861.1896,-122 1861.1896,-86 1998.8104,-86 1998.8104,-122"/>
<text text-anchor="middle" x="1930" y="-99.8" font-family="Times,serif" font-size="14.00" fill="#000000">AudioStorageModule</text>
</g>
<!-- AppModule -->
<g id="node9" class="node">
<title>AppModule</title>
<polygon fill="#8dd3c7" stroke="#000000" points="1178.6571,-187 1175.6571,-191 1154.6571,-191 1151.6571,-187 1095.3429,-187 1095.3429,-151 1178.6571,-151 1178.6571,-187"/>
<text text-anchor="middle" x="1137" y="-164.8" font-family="Times,serif" font-size="14.00" fill="#000000">AppModule</text>
</g>
<!-- AudioStorageModule&#45;&gt;AppModule -->
<g id="edge1" class="edge">
<title>AudioStorageModule&#45;&gt;AppModule</title>
<path fill="none" stroke="#000000" d="M1930,-122.0908C1930,-145.1328 1930,-182 1930,-182 1930,-182 1188.7965,-182 1188.7965,-182"/>
<polygon fill="#000000" stroke="#000000" points="1188.7965,-178.5001 1178.7965,-182 1188.7965,-185.5001 1188.7965,-178.5001"/>
</g>
<!-- AuthModule -->
<g id="node2" class="node">
<title>AuthModule</title>
<polygon fill="#8dd3c7" stroke="#000000" points="1843.5482,-122 1840.5482,-126 1819.5482,-126 1816.5482,-122 1756.4518,-122 1756.4518,-86 1843.5482,-86 1843.5482,-122"/>
<text text-anchor="middle" x="1800" y="-99.8" font-family="Times,serif" font-size="14.00" fill="#000000">AuthModule</text>
</g>
<!-- AuthModule&#45;&gt;AppModule -->
<g id="edge2" class="edge">
<title>AuthModule&#45;&gt;AppModule</title>
<path fill="none" stroke="#000000" d="M1800,-122.0449C1800,-143.6623 1800,-177 1800,-177 1800,-177 1188.7248,-177 1188.7248,-177"/>
<polygon fill="#000000" stroke="#000000" points="1188.7248,-173.5001 1178.7248,-177 1188.7247,-180.5001 1188.7248,-173.5001"/>
</g>
<!-- CallModule -->
<g id="node3" class="node">
<title>CallModule</title>
<polygon fill="#8dd3c7" stroke="#000000" points="1738.3823,-122 1735.3823,-126 1714.3823,-126 1711.3823,-122 1655.6177,-122 1655.6177,-86 1738.3823,-86 1738.3823,-122"/>
<text text-anchor="middle" x="1697" y="-99.8" font-family="Times,serif" font-size="14.00" fill="#000000">CallModule</text>
</g>
<!-- CallModule&#45;&gt;AppModule -->
<g id="edge3" class="edge">
<title>CallModule&#45;&gt;AppModule</title>
<path fill="none" stroke="#000000" d="M1697,-122.2228C1697,-142.3652 1697,-172 1697,-172 1697,-172 1189.091,-172 1189.091,-172"/>
<polygon fill="#000000" stroke="#000000" points="1189.0911,-168.5001 1179.091,-172 1189.091,-175.5001 1189.0911,-168.5001"/>
</g>
<!-- ConfigModule -->
<g id="node4" class="node">
<title>ConfigModule</title>
<polygon fill="#8dd3c7" stroke="#000000" points="1637.4386,-122 1634.4386,-126 1613.4386,-126 1610.4386,-122 1538.5614,-122 1538.5614,-86 1637.4386,-86 1637.4386,-122"/>
<text text-anchor="middle" x="1588" y="-99.8" font-family="Times,serif" font-size="14.00" fill="#000000">ConfigModule</text>
</g>
<!-- ConfigModule&#45;&gt;AppModule -->
<g id="edge4" class="edge">
<title>ConfigModule&#45;&gt;AppModule</title>
<path fill="none" stroke="#000000" d="M1588,-122.2222C1588,-140.8285 1588,-167 1588,-167 1588,-167 1189.024,-167 1189.024,-167"/>
<polygon fill="#000000" stroke="#000000" points="1189.024,-163.5001 1179.024,-167 1189.024,-170.5001 1189.024,-163.5001"/>
</g>
<!-- DatabaseModule -->
<g id="node5" class="node">
<title>DatabaseModule</title>
<polygon fill="#8dd3c7" stroke="#000000" points="1520.3501,-122 1517.3501,-126 1496.3501,-126 1493.3501,-122 1409.6499,-122 1409.6499,-86 1520.3501,-86 1520.3501,-122"/>
<text text-anchor="middle" x="1465" y="-99.8" font-family="Times,serif" font-size="14.00" fill="#000000">DatabaseModule</text>
</g>
<!-- DatabaseModule&#45;&gt;AppModule -->
<g id="edge5" class="edge">
<title>DatabaseModule&#45;&gt;AppModule</title>
<path fill="none" stroke="#000000" d="M1465,-122.0336C1465,-139.0597 1465,-162 1465,-162 1465,-162 1188.8746,-162 1188.8746,-162"/>
<polygon fill="#000000" stroke="#000000" points="1188.8746,-158.5001 1178.8746,-162 1188.8746,-165.5001 1188.8746,-158.5001"/>
</g>
<!-- RequestModule -->
<g id="node6" class="node">
<title>RequestModule</title>
<polygon fill="#8dd3c7" stroke="#000000" points="1391.1514,-122 1388.1514,-126 1367.1514,-126 1364.1514,-122 1286.8486,-122 1286.8486,-86 1391.1514,-86 1391.1514,-122"/>
<text text-anchor="middle" x="1339" y="-99.8" font-family="Times,serif" font-size="14.00" fill="#000000">RequestModule</text>
</g>
<!-- RequestModule&#45;&gt;AppModule -->
<g id="edge6" class="edge">
<title>RequestModule&#45;&gt;AppModule</title>
<path fill="none" stroke="#000000" d="M1339,-122.2396C1339,-137.5706 1339,-157 1339,-157 1339,-157 1188.8545,-157 1188.8545,-157"/>
<polygon fill="#000000" stroke="#000000" points="1188.8546,-153.5001 1178.8545,-157 1188.8545,-160.5001 1188.8546,-153.5001"/>
</g>
<!-- ShoppingListModule -->
<g id="node7" class="node">
<title>ShoppingListModule</title>
<polygon fill="#8dd3c7" stroke="#000000" points="1268.5014,-122 1265.5014,-126 1244.5014,-126 1241.5014,-122 1133.4986,-122 1133.4986,-86 1268.5014,-86 1268.5014,-122"/>
<text text-anchor="middle" x="1201" y="-99.8" font-family="Times,serif" font-size="14.00" fill="#000000">ShoppingListModule</text>
</g>
<!-- ShoppingListModule&#45;&gt;AppModule -->
<g id="edge7" class="edge">
<title>ShoppingListModule&#45;&gt;AppModule</title>
<path fill="none" stroke="#000000" d="M1156.1638,-122.1061C1156.1638,-122.1061 1156.1638,-140.991 1156.1638,-140.991"/>
<polygon fill="#000000" stroke="#000000" points="1152.6638,-140.9909 1156.1638,-150.991 1159.6638,-140.991 1152.6638,-140.9909"/>
</g>
<!-- UserModule -->
<g id="node8" class="node">
<title>UserModule</title>
<polygon fill="#8dd3c7" stroke="#000000" points="1115.9762,-122 1112.9762,-126 1091.9762,-126 1088.9762,-122 1030.0238,-122 1030.0238,-86 1115.9762,-86 1115.9762,-122"/>
<text text-anchor="middle" x="1073" y="-99.8" font-family="Times,serif" font-size="14.00" fill="#000000">UserModule</text>
</g>
<!-- UserModule&#45;&gt;AppModule -->
<g id="edge8" class="edge">
<title>UserModule&#45;&gt;AppModule</title>
<path fill="none" stroke="#000000" d="M1105.58,-122.1061C1105.58,-122.1061 1105.58,-140.991 1105.58,-140.991"/>
<polygon fill="#000000" stroke="#000000" points="1102.08,-140.9909 1105.58,-150.991 1109.08,-140.991 1102.08,-140.9909"/>
</g>
<!-- AppService -->
<g id="node10" class="node">
<title>AppService</title>
<ellipse fill="#fdb462" stroke="#000000" cx="949" cy="-104" rx="56.7406" ry="18"/>
<text text-anchor="middle" x="949" y="-99.8" font-family="Times,serif" font-size="14.00" fill="#000000">AppService</text>
</g>
<!-- AppService&#45;&gt;AppModule -->
<g id="edge9" class="edge">
<title>AppService&#45;&gt;AppModule</title>
<path fill="none" stroke="#000000" d="M949,-122.2396C949,-137.5706 949,-157 949,-157 949,-157 1085.2767,-157 1085.2767,-157"/>
<polygon fill="#000000" stroke="#000000" points="1085.2767,-160.5001 1095.2767,-157 1085.2767,-153.5001 1085.2767,-160.5001"/>
</g>
<!-- ArticlesService -->
<g id="node11" class="node">
<title>ArticlesService</title>
<ellipse fill="#fdb462" stroke="#000000" cx="804" cy="-104" rx="70.6162" ry="18"/>
<text text-anchor="middle" x="804" y="-99.8" font-family="Times,serif" font-size="14.00" fill="#000000">ArticlesService</text>
</g>
<!-- ArticlesService&#45;&gt;AppModule -->
<g id="edge10" class="edge">
<title>ArticlesService&#45;&gt;AppModule</title>
<path fill="none" stroke="#000000" d="M804,-122.0336C804,-139.0597 804,-162 804,-162 804,-162 1085.1625,-162 1085.1625,-162"/>
<polygon fill="#000000" stroke="#000000" points="1085.1625,-165.5001 1095.1625,-162 1085.1625,-158.5001 1085.1625,-165.5001"/>
</g>
<!-- AudioStorageService -->
<g id="node12" class="node">
<title>AudioStorageService</title>
<ellipse fill="#fdb462" stroke="#000000" cx="622" cy="-104" rx="93.7591" ry="18"/>
<text text-anchor="middle" x="622" y="-99.8" font-family="Times,serif" font-size="14.00" fill="#000000">AudioStorageService</text>
</g>
<!-- AudioStorageService&#45;&gt;AppModule -->
<g id="edge11" class="edge">
<title>AudioStorageService&#45;&gt;AppModule</title>
<path fill="none" stroke="#000000" d="M622,-122.2222C622,-140.8285 622,-167 622,-167 622,-167 1085.2916,-167 1085.2916,-167"/>
<polygon fill="#000000" stroke="#000000" points="1085.2917,-170.5001 1095.2916,-167 1085.2916,-163.5001 1085.2917,-170.5001"/>
</g>
<!-- RequestService -->
<g id="node13" class="node">
<title>RequestService</title>
<ellipse fill="#fdb462" stroke="#000000" cx="439" cy="-104" rx="71.2036" ry="18"/>
<text text-anchor="middle" x="439" y="-99.8" font-family="Times,serif" font-size="14.00" fill="#000000">RequestService</text>
</g>
<!-- RequestService&#45;&gt;AppModule -->
<g id="edge12" class="edge">
<title>RequestService&#45;&gt;AppModule</title>
<path fill="none" stroke="#000000" d="M439,-122.2228C439,-142.3652 439,-172 439,-172 439,-172 1085.1684,-172 1085.1684,-172"/>
<polygon fill="#000000" stroke="#000000" points="1085.1684,-175.5001 1095.1684,-172 1085.1684,-168.5001 1085.1684,-175.5001"/>
</g>
<!-- ShoppingListService -->
<g id="node14" class="node">
<title>ShoppingListService</title>
<ellipse fill="#fdb462" stroke="#000000" cx="258" cy="-104" rx="92.0741" ry="18"/>
<text text-anchor="middle" x="258" y="-99.8" font-family="Times,serif" font-size="14.00" fill="#000000">ShoppingListService</text>
</g>
<!-- ShoppingListService&#45;&gt;AppModule -->
<g id="edge13" class="edge">
<title>ShoppingListService&#45;&gt;AppModule</title>
<path fill="none" stroke="#000000" d="M258,-122.0449C258,-143.6623 258,-177 258,-177 258,-177 1085.1953,-177 1085.1953,-177"/>
<polygon fill="#000000" stroke="#000000" points="1085.1954,-180.5001 1095.1953,-177 1085.1953,-173.5001 1085.1954,-180.5001"/>
</g>
<!-- UsersService -->
<g id="node15" class="node">
<title>UsersService</title>
<ellipse fill="#fdb462" stroke="#000000" cx="86" cy="-104" rx="61.9519" ry="18"/>
<text text-anchor="middle" x="86" y="-99.8" font-family="Times,serif" font-size="14.00" fill="#000000">UsersService</text>
</g>
<!-- UsersService&#45;&gt;AppModule -->
<g id="edge14" class="edge">
<title>UsersService&#45;&gt;AppModule</title>
<path fill="none" stroke="#000000" d="M86,-122.0908C86,-145.1328 86,-182 86,-182 86,-182 1085.151,-182 1085.151,-182"/>
<polygon fill="#000000" stroke="#000000" points="1085.151,-185.5001 1095.151,-182 1085.151,-178.5001 1085.151,-185.5001"/>
</g>
</g>
</svg>
