<?xml version="1.0" encoding="UTF-8" standalone="no"?>
<!DOCTYPE svg PUBLIC "-//W3C//DTD SVG 1.1//EN"
 "http://www.w3.org/Graphics/SVG/1.1/DTD/svg11.dtd">
<!-- Generated by graphviz version 2.40.1 (20161225.0304)
 -->
<!-- Title: dependencies Pages: 1 -->
<svg width="1787pt" height="211pt"
 viewBox="0.00 0.00 1787.00 211.00" xmlns="http://www.w3.org/2000/svg" xmlns:xlink="http://www.w3.org/1999/xlink">
<g id="graph0" class="graph" transform="scale(1 1) rotate(0) translate(4 207)">
<title>dependencies</title>
<polygon fill="#ffffff" stroke="transparent" points="-4,4 -4,-207 1783,-207 1783,4 -4,4"/>
<text text-anchor="start" x="868.5091" y="-42.4" font-family="sans-serif" font-weight="bold" font-size="14.00" fill="#000000">Legend</text>
<polygon fill="#ffffb3" stroke="transparent" points="655.5,-10 655.5,-30 675.5,-30 675.5,-10 655.5,-10"/>
<text text-anchor="start" x="679.129" y="-15.4" font-family="sans-serif" font-size="14.00" fill="#000000"> &#160;Declarations</text>
<polygon fill="#8dd3c7" stroke="transparent" points="768.5,-10 768.5,-30 788.5,-30 788.5,-10 768.5,-10"/>
<text text-anchor="start" x="792.2251" y="-15.4" font-family="sans-serif" font-size="14.00" fill="#000000"> &#160;Module</text>
<polygon fill="#80b1d3" stroke="transparent" points="854.5,-10 854.5,-30 874.5,-30 874.5,-10 854.5,-10"/>
<text text-anchor="start" x="878.2812" y="-15.4" font-family="sans-serif" font-size="14.00" fill="#000000"> &#160;Bootstrap</text>
<polygon fill="#fdb462" stroke="transparent" points="951.5,-10 951.5,-30 971.5,-30 971.5,-10 951.5,-10"/>
<text text-anchor="start" x="975.1732" y="-15.4" font-family="sans-serif" font-size="14.00" fill="#000000"> &#160;Providers</text>
<polygon fill="#fb8072" stroke="transparent" points="1047.5,-10 1047.5,-30 1067.5,-30 1067.5,-10 1047.5,-10"/>
<text text-anchor="start" x="1071.2258" y="-15.4" font-family="sans-serif" font-size="14.00" fill="#000000"> &#160;Exports</text>
<g id="clust1" class="cluster">
<title>cluster_AppModule</title>
<polygon fill="none" stroke="#000000" stroke-dasharray="1,5" points="8,-70 8,-195 1771,-195 1771,-70 8,-70"/>
</g>
<g id="clust3" class="cluster">
<title>cluster_AppModule_imports</title>
<polygon fill="none" stroke="#000000" points="817,-78 817,-130 1763,-130 1763,-78 817,-78"/>
</g>
<g id="clust6" class="cluster">
<title>cluster_AppModule_providers</title>
<polygon fill="none" stroke="#000000" points="16,-78 16,-130 809,-130 809,-78 16,-78"/>
</g>
<!-- AddressModel -->
<g id="node1" class="node">
<title>AddressModel</title>
<polygon fill="#8dd3c7" stroke="#000000" points="1755.4217,-122 1752.4217,-126 1731.4217,-126 1728.4217,-122 1656.5783,-122 1656.5783,-86 1755.4217,-86 1755.4217,-122"/>
<text text-anchor="middle" x="1706" y="-99.8" font-family="Times,serif" font-size="14.00" fill="#000000">AddressModel</text>
</g>
<!-- AppModule -->
<g id="node9" class="node">
<title>AppModule</title>
<polygon fill="#8dd3c7" stroke="#000000" points="1037.6571,-187 1034.6571,-191 1013.6571,-191 1010.6571,-187 954.3429,-187 954.3429,-151 1037.6571,-151 1037.6571,-187"/>
<text text-anchor="middle" x="996" y="-164.8" font-family="Times,serif" font-size="14.00" fill="#000000">AppModule</text>
</g>
<!-- AddressModel&#45;&gt;AppModule -->
<g id="edge1" class="edge">
<title>AddressModel&#45;&gt;AppModule</title>
<path fill="none" stroke="#000000" d="M1706,-122.0908C1706,-145.1328 1706,-182 1706,-182 1706,-182 1047.763,-182 1047.763,-182"/>
<polygon fill="#000000" stroke="#000000" points="1047.7631,-178.5001 1037.763,-182 1047.763,-185.5001 1047.7631,-178.5001"/>
</g>
<!-- AuthModule -->
<g id="node2" class="node">
<title>AuthModule</title>
<polygon fill="#8dd3c7" stroke="#000000" points="1638.5482,-122 1635.5482,-126 1614.5482,-126 1611.5482,-122 1551.4518,-122 1551.4518,-86 1638.5482,-86 1638.5482,-122"/>
<text text-anchor="middle" x="1595" y="-99.8" font-family="Times,serif" font-size="14.00" fill="#000000">AuthModule</text>
</g>
<!-- AuthModule&#45;&gt;AppModule -->
<g id="edge2" class="edge">
<title>AuthModule&#45;&gt;AppModule</title>
<path fill="none" stroke="#000000" d="M1595,-122.0449C1595,-143.6623 1595,-177 1595,-177 1595,-177 1048.1205,-177 1048.1205,-177"/>
<polygon fill="#000000" stroke="#000000" points="1048.1206,-173.5001 1038.1205,-177 1048.1205,-180.5001 1048.1206,-173.5001"/>
</g>
<!-- CallModule -->
<g id="node3" class="node">
<title>CallModule</title>
<polygon fill="#8dd3c7" stroke="#000000" points="1533.3823,-122 1530.3823,-126 1509.3823,-126 1506.3823,-122 1450.6177,-122 1450.6177,-86 1533.3823,-86 1533.3823,-122"/>
<text text-anchor="middle" x="1492" y="-99.8" font-family="Times,serif" font-size="14.00" fill="#000000">CallModule</text>
</g>
<!-- CallModule&#45;&gt;AppModule -->
<g id="edge3" class="edge">
<title>CallModule&#45;&gt;AppModule</title>
<path fill="none" stroke="#000000" d="M1492,-122.2228C1492,-142.3652 1492,-172 1492,-172 1492,-172 1047.8612,-172 1047.8612,-172"/>
<polygon fill="#000000" stroke="#000000" points="1047.8612,-168.5001 1037.8612,-172 1047.8612,-175.5001 1047.8612,-168.5001"/>
</g>
<!-- ConfigModule -->
<g id="node4" class="node">
<title>ConfigModule</title>
<polygon fill="#8dd3c7" stroke="#000000" points="1432.4386,-122 1429.4386,-126 1408.4386,-126 1405.4386,-122 1333.5614,-122 1333.5614,-86 1432.4386,-86 1432.4386,-122"/>
<text text-anchor="middle" x="1383" y="-99.8" font-family="Times,serif" font-size="14.00" fill="#000000">ConfigModule</text>
</g>
<!-- ConfigModule&#45;&gt;AppModule -->
<g id="edge4" class="edge">
<title>ConfigModule&#45;&gt;AppModule</title>
<path fill="none" stroke="#000000" d="M1383,-122.2222C1383,-140.8285 1383,-167 1383,-167 1383,-167 1047.7835,-167 1047.7835,-167"/>
<polygon fill="#000000" stroke="#000000" points="1047.7835,-163.5001 1037.7835,-167 1047.7834,-170.5001 1047.7835,-163.5001"/>
</g>
<!-- DatabaseModule -->
<g id="node5" class="node">
<title>DatabaseModule</title>
<polygon fill="#8dd3c7" stroke="#000000" points="1315.3501,-122 1312.3501,-126 1291.3501,-126 1288.3501,-122 1204.6499,-122 1204.6499,-86 1315.3501,-86 1315.3501,-122"/>
<text text-anchor="middle" x="1260" y="-99.8" font-family="Times,serif" font-size="14.00" fill="#000000">DatabaseModule</text>
</g>
<!-- DatabaseModule&#45;&gt;AppModule -->
<g id="edge5" class="edge">
<title>DatabaseModule&#45;&gt;AppModule</title>
<path fill="none" stroke="#000000" d="M1260,-122.0336C1260,-139.0597 1260,-162 1260,-162 1260,-162 1047.8316,-162 1047.8316,-162"/>
<polygon fill="#000000" stroke="#000000" points="1047.8316,-158.5001 1037.8316,-162 1047.8315,-165.5001 1047.8316,-158.5001"/>
</g>
<!-- RequestModule -->
<g id="node6" class="node">
<title>RequestModule</title>
<polygon fill="#8dd3c7" stroke="#000000" points="1186.1514,-122 1183.1514,-126 1162.1514,-126 1159.1514,-122 1081.8486,-122 1081.8486,-86 1186.1514,-86 1186.1514,-122"/>
<text text-anchor="middle" x="1134" y="-99.8" font-family="Times,serif" font-size="14.00" fill="#000000">RequestModule</text>
</g>
<!-- RequestModule&#45;&gt;AppModule -->
<g id="edge6" class="edge">
<title>RequestModule&#45;&gt;AppModule</title>
<path fill="none" stroke="#000000" d="M1134,-122.2396C1134,-137.5706 1134,-157 1134,-157 1134,-157 1047.779,-157 1047.779,-157"/>
<polygon fill="#000000" stroke="#000000" points="1047.7791,-153.5001 1037.779,-157 1047.779,-160.5001 1047.7791,-153.5001"/>
</g>
<!-- ShoppingListModule -->
<g id="node7" class="node">
<title>ShoppingListModule</title>
<polygon fill="#8dd3c7" stroke="#000000" points="1063.5014,-122 1060.5014,-126 1039.5014,-126 1036.5014,-122 928.4986,-122 928.4986,-86 1063.5014,-86 1063.5014,-122"/>
<text text-anchor="middle" x="996" y="-99.8" font-family="Times,serif" font-size="14.00" fill="#000000">ShoppingListModule</text>
</g>
<!-- ShoppingListModule&#45;&gt;AppModule -->
<g id="edge7" class="edge">
<title>ShoppingListModule&#45;&gt;AppModule</title>
<path fill="none" stroke="#000000" d="M996,-122.1061C996,-122.1061 996,-140.991 996,-140.991"/>
<polygon fill="#000000" stroke="#000000" points="992.5001,-140.9909 996,-150.991 999.5001,-140.991 992.5001,-140.9909"/>
</g>
<!-- UserModule -->
<g id="node8" class="node">
<title>UserModule</title>
<polygon fill="#8dd3c7" stroke="#000000" points="910.9762,-122 907.9762,-126 886.9762,-126 883.9762,-122 825.0238,-122 825.0238,-86 910.9762,-86 910.9762,-122"/>
<text text-anchor="middle" x="868" y="-99.8" font-family="Times,serif" font-size="14.00" fill="#000000">UserModule</text>
</g>
<!-- UserModule&#45;&gt;AppModule -->
<g id="edge8" class="edge">
<title>UserModule&#45;&gt;AppModule</title>
<path fill="none" stroke="#000000" d="M868,-122.2396C868,-137.5706 868,-157 868,-157 868,-157 944.088,-157 944.088,-157"/>
<polygon fill="#000000" stroke="#000000" points="944.088,-160.5001 954.088,-157 944.088,-153.5001 944.088,-160.5001"/>
</g>
<!-- AppService -->
<g id="node10" class="node">
<title>AppService</title>
<ellipse fill="#fdb462" stroke="#000000" cx="744" cy="-104" rx="56.7406" ry="18"/>
<text text-anchor="middle" x="744" y="-99.8" font-family="Times,serif" font-size="14.00" fill="#000000">AppService</text>
</g>
<!-- AppService&#45;&gt;AppModule -->
<g id="edge9" class="edge">
<title>AppService&#45;&gt;AppModule</title>
<path fill="none" stroke="#000000" d="M744,-122.0336C744,-139.0597 744,-162 744,-162 744,-162 944.1044,-162 944.1044,-162"/>
<polygon fill="#000000" stroke="#000000" points="944.1045,-165.5001 954.1044,-162 944.1044,-158.5001 944.1045,-165.5001"/>
</g>
<!-- ArticlesService -->
<g id="node11" class="node">
<title>ArticlesService</title>
<ellipse fill="#fdb462" stroke="#000000" cx="599" cy="-104" rx="70.6162" ry="18"/>
<text text-anchor="middle" x="599" y="-99.8" font-family="Times,serif" font-size="14.00" fill="#000000">ArticlesService</text>
</g>
<!-- ArticlesService&#45;&gt;AppModule -->
<g id="edge10" class="edge">
<title>ArticlesService&#45;&gt;AppModule</title>
<path fill="none" stroke="#000000" d="M599,-122.2222C599,-140.8285 599,-167 599,-167 599,-167 944.2644,-167 944.2644,-167"/>
<polygon fill="#000000" stroke="#000000" points="944.2644,-170.5001 954.2644,-167 944.2644,-163.5001 944.2644,-170.5001"/>
</g>
<!-- RequestService -->
<g id="node12" class="node">
<title>RequestService</title>
<ellipse fill="#fdb462" stroke="#000000" cx="439" cy="-104" rx="71.2036" ry="18"/>
<text text-anchor="middle" x="439" y="-99.8" font-family="Times,serif" font-size="14.00" fill="#000000">RequestService</text>
</g>
<!-- RequestService&#45;&gt;AppModule -->
<g id="edge11" class="edge">
<title>RequestService&#45;&gt;AppModule</title>
<path fill="none" stroke="#000000" d="M439,-122.2228C439,-142.3652 439,-172 439,-172 439,-172 944.1345,-172 944.1345,-172"/>
<polygon fill="#000000" stroke="#000000" points="944.1345,-175.5001 954.1345,-172 944.1344,-168.5001 944.1345,-175.5001"/>
</g>
<!-- ShoppingListService -->
<g id="node13" class="node">
<title>ShoppingListService</title>
<ellipse fill="#fdb462" stroke="#000000" cx="258" cy="-104" rx="92.0741" ry="18"/>
<text text-anchor="middle" x="258" y="-99.8" font-family="Times,serif" font-size="14.00" fill="#000000">ShoppingListService</text>
</g>
<!-- ShoppingListService&#45;&gt;AppModule -->
<g id="edge12" class="edge">
<title>ShoppingListService&#45;&gt;AppModule</title>
<path fill="none" stroke="#000000" d="M258,-122.0449C258,-143.6623 258,-177 258,-177 258,-177 944.2074,-177 944.2074,-177"/>
<polygon fill="#000000" stroke="#000000" points="944.2074,-180.5001 954.2074,-177 944.2074,-173.5001 944.2074,-180.5001"/>
</g>
<!-- UsersService -->
<g id="node14" class="node">
<title>UsersService</title>
<ellipse fill="#fdb462" stroke="#000000" cx="86" cy="-104" rx="61.9519" ry="18"/>
<text text-anchor="middle" x="86" y="-99.8" font-family="Times,serif" font-size="14.00" fill="#000000">UsersService</text>
</g>
<!-- UsersService&#45;&gt;AppModule -->
<g id="edge13" class="edge">
<title>UsersService&#45;&gt;AppModule</title>
<path fill="none" stroke="#000000" d="M86,-122.0908C86,-145.1328 86,-182 86,-182 86,-182 944.2347,-182 944.2347,-182"/>
<polygon fill="#000000" stroke="#000000" points="944.2347,-185.5001 954.2347,-182 944.2347,-178.5001 944.2347,-185.5001"/>
</g>
</g>
</svg>
