<?xml version="1.0" encoding="UTF-8" standalone="no"?>
<!DOCTYPE svg PUBLIC "-//W3C//DTD SVG 1.1//EN"
 "http://www.w3.org/Graphics/SVG/1.1/DTD/svg11.dtd">
<!-- Generated by graphviz version 2.40.1 (20161225.0304)
 -->
<!-- Title: dependencies Pages: 1 -->
<svg width="1871pt" height="450pt"
 viewBox="0.00 0.00 1871.00 450.00" xmlns="http://www.w3.org/2000/svg" xmlns:xlink="http://www.w3.org/1999/xlink">
<g id="graph0" class="graph" transform="scale(1 1) rotate(0) translate(4 446)">
<title>dependencies</title>
<polygon fill="#ffffff" stroke="transparent" points="-4,4 -4,-446 1867,-446 1867,4 -4,4"/>
<text text-anchor="start" x="910.5091" y="-42.4" font-family="sans-serif" font-weight="bold" font-size="14.00" fill="#000000">Legend</text>
<polygon fill="#ffffb3" stroke="transparent" points="697.5,-10 697.5,-30 717.5,-30 717.5,-10 697.5,-10"/>
<text text-anchor="start" x="721.129" y="-15.4" font-family="sans-serif" font-size="14.00" fill="#000000"> &#160;Declarations</text>
<polygon fill="#8dd3c7" stroke="transparent" points="810.5,-10 810.5,-30 830.5,-30 830.5,-10 810.5,-10"/>
<text text-anchor="start" x="834.2251" y="-15.4" font-family="sans-serif" font-size="14.00" fill="#000000"> &#160;Module</text>
<polygon fill="#80b1d3" stroke="transparent" points="896.5,-10 896.5,-30 916.5,-30 916.5,-10 896.5,-10"/>
<text text-anchor="start" x="920.2812" y="-15.4" font-family="sans-serif" font-size="14.00" fill="#000000"> &#160;Bootstrap</text>
<polygon fill="#fdb462" stroke="transparent" points="993.5,-10 993.5,-30 1013.5,-30 1013.5,-10 993.5,-10"/>
<text text-anchor="start" x="1017.1732" y="-15.4" font-family="sans-serif" font-size="14.00" fill="#000000"> &#160;Providers</text>
<polygon fill="#fb8072" stroke="transparent" points="1089.5,-10 1089.5,-30 1109.5,-30 1109.5,-10 1089.5,-10"/>
<text text-anchor="start" x="1113.2258" y="-15.4" font-family="sans-serif" font-size="14.00" fill="#000000"> &#160;Exports</text>
<g id="clust1" class="cluster">
<title>cluster_AppModule</title>
<polygon fill="none" stroke="#000000" stroke-dasharray="1,5" points="434,-70 434,-426 1449,-426 1449,-70 434,-70"/>
</g>
<g id="clust3" class="cluster">
<title>cluster_AppModule_imports</title>
<polygon fill="none" stroke="#000000" points="961,-146 961,-350 1342,-350 1342,-146 961,-146"/>
</g>
<g id="clust6" class="cluster">
<title>cluster_AppModule_providers</title>
<polygon fill="none" stroke="#000000" points="442,-78 442,-130 1441,-130 1441,-78 442,-78"/>
</g>
<g id="clust7" class="cluster">
<title>cluster_AudioStorageModule</title>
<polygon fill="none" stroke="#000000" stroke-dasharray="1,5" points="1457,-290 1457,-358 1629,-358 1629,-290 1457,-290"/>
</g>
<g id="clust10" class="cluster">
<title>cluster_AudioStorageModule_exports</title>
<polygon fill="none" stroke="#000000" points="1465,-298 1465,-350 1621,-350 1621,-298 1465,-298"/>
</g>
<g id="clust13" class="cluster">
<title>cluster_AuthModule</title>
<polygon fill="none" stroke="#000000" stroke-dasharray="1,5" points="1573,-138 1573,-206 1855,-206 1855,-138 1573,-138"/>
</g>
<g id="clust18" class="cluster">
<title>cluster_AuthModule_providers</title>
<polygon fill="none" stroke="#000000" points="1581,-146 1581,-198 1847,-198 1847,-146 1581,-146"/>
</g>
<g id="clust19" class="cluster">
<title>cluster_CallModule</title>
<polygon fill="none" stroke="#000000" stroke-dasharray="1,5" points="8,-214 8,-282 152,-282 152,-214 8,-214"/>
</g>
<g id="clust24" class="cluster">
<title>cluster_CallModule_providers</title>
<polygon fill="none" stroke="#000000" points="16,-222 16,-274 144,-274 144,-222 16,-222"/>
</g>
<g id="clust25" class="cluster">
<title>cluster_ConfigModule</title>
<polygon fill="none" stroke="#000000" stroke-dasharray="1,5" points="160,-214 160,-282 292,-282 292,-214 160,-214"/>
</g>
<g id="clust28" class="cluster">
<title>cluster_ConfigModule_exports</title>
<polygon fill="none" stroke="#000000" points="168,-222 168,-274 284,-274 284,-222 168,-222"/>
</g>
<g id="clust37" class="cluster">
<title>cluster_RequestModule</title>
<polygon fill="none" stroke="#000000" stroke-dasharray="1,5" points="1637,-290 1637,-358 1775,-358 1775,-290 1637,-290"/>
</g>
<g id="clust40" class="cluster">
<title>cluster_RequestModule_exports</title>
<polygon fill="none" stroke="#000000" points="1645,-298 1645,-350 1767,-350 1767,-298 1645,-298"/>
</g>
<g id="clust43" class="cluster">
<title>cluster_ShoppingListModule</title>
<polygon fill="none" stroke="#000000" stroke-dasharray="1,5" points="1457,-366 1457,-434 1625,-434 1625,-366 1457,-366"/>
</g>
<g id="clust46" class="cluster">
<title>cluster_ShoppingListModule_exports</title>
<polygon fill="none" stroke="#000000" points="1465,-374 1465,-426 1617,-426 1617,-374 1465,-374"/>
</g>
<g id="clust49" class="cluster">
<title>cluster_UserModule</title>
<polygon fill="none" stroke="#000000" stroke-dasharray="1,5" points="300,-214 300,-282 426,-282 426,-214 300,-214"/>
</g>
<g id="clust52" class="cluster">
<title>cluster_UserModule_exports</title>
<polygon fill="none" stroke="#000000" points="308,-222 308,-274 418,-274 418,-222 308,-222"/>
</g>
<g id="clust55" class="cluster">
<title>cluster_UsersModule</title>
<polygon fill="none" stroke="#000000" stroke-dasharray="1,5" points="1457,-146 1457,-198 1565,-198 1565,-146 1457,-146"/>
</g>
<!-- AudioStorageModule -->
<g id="node1" class="node">
<title>AudioStorageModule</title>
<polygon fill="#8dd3c7" stroke="#000000" points="1106.8104,-266 1103.8104,-270 1082.8104,-270 1079.8104,-266 969.1896,-266 969.1896,-230 1106.8104,-230 1106.8104,-266"/>
<text text-anchor="middle" x="1038" y="-243.8" font-family="Times,serif" font-size="14.00" fill="#000000">AudioStorageModule</text>
</g>
<!-- CallModule -->
<g id="node3" class="node">
<title>CallModule</title>
<polygon fill="#8dd3c7" stroke="#000000" points="1111.3823,-342 1108.3823,-346 1087.3823,-346 1084.3823,-342 1028.6177,-342 1028.6177,-306 1111.3823,-306 1111.3823,-342"/>
<text text-anchor="middle" x="1070" y="-319.8" font-family="Times,serif" font-size="14.00" fill="#000000">CallModule</text>
</g>
<!-- AudioStorageModule&#45;&gt;CallModule -->
<g id="edge22" class="edge">
<title>AudioStorageModule&#45;&gt;CallModule</title>
<path fill="none" stroke="#000000" d="M1054.5909,-266.0109C1054.5909,-266.0109 1054.5909,-295.855 1054.5909,-295.855"/>
<polygon fill="#000000" stroke="#000000" points="1051.091,-295.8549 1054.5909,-305.855 1058.091,-295.855 1051.091,-295.8549"/>
</g>
<!-- AppModule -->
<g id="node9" class="node">
<title>AppModule</title>
<polygon fill="#8dd3c7" stroke="#000000" points="981.6571,-418 978.6571,-422 957.6571,-422 954.6571,-418 898.3429,-418 898.3429,-382 981.6571,-382 981.6571,-418"/>
<text text-anchor="middle" x="940" y="-395.8" font-family="Times,serif" font-size="14.00" fill="#000000">AppModule</text>
</g>
<!-- AudioStorageModule&#45;&gt;AppModule -->
<g id="edge1" class="edge">
<title>AudioStorageModule&#45;&gt;AppModule</title>
<path fill="none" stroke="#000000" d="M971.8416,-266.0333C971.8416,-266.0333 971.8416,-371.9902 971.8416,-371.9902"/>
<polygon fill="#000000" stroke="#000000" points="968.3417,-371.9901 971.8416,-381.9902 975.3417,-371.9902 968.3417,-371.9901"/>
</g>
<!-- AudioStorageService  -->
<g id="node16" class="node">
<title>AudioStorageService </title>
<polygon fill="#fb8072" stroke="#000000" points="1612.738,-342 1473.262,-342 1473.262,-306 1612.738,-306 1612.738,-342"/>
<text text-anchor="middle" x="1543" y="-319.8" font-family="Times,serif" font-size="14.00" fill="#000000">AudioStorageService </text>
</g>
<!-- AudioStorageModule&#45;&gt;AudioStorageService  -->
<g id="edge16" class="edge">
<title>AudioStorageModule&#45;&gt;AudioStorageService </title>
<path fill="none" stroke="#000000" stroke-dasharray="5,2" d="M1080.623,-266.207C1080.623,-271.5549 1080.623,-276 1080.623,-276 1080.623,-276 1515.0458,-276 1515.0458,-276 1515.0458,-276 1515.0458,-295.8533 1515.0458,-295.8533"/>
<polygon fill="#000000" stroke="#000000" points="1511.5458,-295.8532 1515.0458,-305.8533 1518.5458,-295.8533 1511.5458,-295.8532"/>
</g>
<!-- AuthModule -->
<g id="node2" class="node">
<title>AuthModule</title>
<polygon fill="#8dd3c7" stroke="#000000" points="1211.5482,-266 1208.5482,-270 1187.5482,-270 1184.5482,-266 1124.4518,-266 1124.4518,-230 1211.5482,-230 1211.5482,-266"/>
<text text-anchor="middle" x="1168" y="-243.8" font-family="Times,serif" font-size="14.00" fill="#000000">AuthModule</text>
</g>
<!-- AuthModule&#45;&gt;AppModule -->
<g id="edge2" class="edge">
<title>AuthModule&#45;&gt;AppModule</title>
<path fill="none" stroke="#000000" d="M1161.3629,-266.0333C1161.3629,-306.2965 1161.3629,-400 1161.3629,-400 1161.3629,-400 991.8969,-400 991.8969,-400"/>
<polygon fill="#000000" stroke="#000000" points="991.8969,-396.5001 981.8969,-400 991.8969,-403.5001 991.8969,-396.5001"/>
</g>
<!-- CallModule&#45;&gt;AppModule -->
<g id="edge3" class="edge">
<title>CallModule&#45;&gt;AppModule</title>
<path fill="none" stroke="#000000" d="M1028.3809,-330C1004.5457,-330 979.3316,-330 979.3316,-330 979.3316,-330 979.3316,-371.9733 979.3316,-371.9733"/>
<polygon fill="#000000" stroke="#000000" points="975.8317,-371.9732 979.3316,-381.9733 982.8317,-371.9733 975.8317,-371.9732"/>
</g>
<!-- ConfigModule -->
<g id="node4" class="node">
<title>ConfigModule</title>
<polygon fill="#8dd3c7" stroke="#000000" points="1196.4386,-190 1193.4386,-194 1172.4386,-194 1169.4386,-190 1097.5614,-190 1097.5614,-154 1196.4386,-154 1196.4386,-190"/>
<text text-anchor="middle" x="1147" y="-167.8" font-family="Times,serif" font-size="14.00" fill="#000000">ConfigModule</text>
</g>
<!-- ConfigModule&#45;&gt;AudioStorageModule -->
<g id="edge15" class="edge">
<title>ConfigModule&#45;&gt;AudioStorageModule</title>
<path fill="none" stroke="#000000" d="M1102.2181,-190.0109C1102.2181,-190.0109 1102.2181,-219.855 1102.2181,-219.855"/>
<polygon fill="#000000" stroke="#000000" points="1098.7182,-219.8549 1102.2181,-229.855 1105.7182,-219.855 1098.7182,-219.8549"/>
</g>
<!-- ConfigModule&#45;&gt;AuthModule -->
<g id="edge18" class="edge">
<title>ConfigModule&#45;&gt;AuthModule</title>
<path fill="none" stroke="#000000" d="M1160.2227,-190.0109C1160.2227,-190.0109 1160.2227,-219.855 1160.2227,-219.855"/>
<polygon fill="#000000" stroke="#000000" points="1156.7227,-219.8549 1160.2227,-229.855 1163.7227,-219.855 1156.7227,-219.8549"/>
</g>
<!-- ConfigModule&#45;&gt;AppModule -->
<g id="edge4" class="edge">
<title>ConfigModule&#45;&gt;AppModule</title>
<path fill="none" stroke="#000000" d="M1119.9647,-190.0445C1119.9647,-241.9579 1119.9647,-388 1119.9647,-388 1119.9647,-388 991.7399,-388 991.7399,-388"/>
<polygon fill="#000000" stroke="#000000" points="991.7399,-384.5001 981.7399,-388 991.7398,-391.5001 991.7399,-384.5001"/>
</g>
<!-- ConfigService  -->
<g id="node20" class="node">
<title>ConfigService </title>
<polygon fill="#fb8072" stroke="#000000" points="276.3661,-266 175.6339,-266 175.6339,-230 276.3661,-230 276.3661,-266"/>
<text text-anchor="middle" x="226" y="-243.8" font-family="Times,serif" font-size="14.00" fill="#000000">ConfigService </text>
</g>
<!-- ConfigModule&#45;&gt;ConfigService  -->
<g id="edge24" class="edge">
<title>ConfigModule&#45;&gt;ConfigService </title>
<path fill="none" stroke="#000000" stroke-dasharray="5,2" d="M1115.7029,-190.1903C1115.7029,-193.5376 1115.7029,-196 1115.7029,-196 1115.7029,-196 226,-196 226,-196 226,-196 226,-219.8129 226,-219.8129"/>
<polygon fill="#000000" stroke="#000000" points="222.5001,-219.8129 226,-229.8129 229.5001,-219.813 222.5001,-219.8129"/>
</g>
<!-- DatabaseModule -->
<g id="node5" class="node">
<title>DatabaseModule</title>
<polygon fill="#8dd3c7" stroke="#000000" points="1079.3501,-190 1076.3501,-194 1055.3501,-194 1052.3501,-190 968.6499,-190 968.6499,-154 1079.3501,-154 1079.3501,-190"/>
<text text-anchor="middle" x="1024" y="-167.8" font-family="Times,serif" font-size="14.00" fill="#000000">DatabaseModule</text>
</g>
<!-- DatabaseModule&#45;&gt;AppModule -->
<g id="edge5" class="edge">
<title>DatabaseModule&#45;&gt;AppModule</title>
<path fill="none" stroke="#000000" d="M968.3582,-172C965.136,-172 963.172,-172 963.172,-172 963.172,-172 963.172,-371.7272 963.172,-371.7272"/>
<polygon fill="#000000" stroke="#000000" points="959.6721,-371.7272 963.172,-381.7272 966.6721,-371.7272 959.6721,-371.7272"/>
</g>
<!-- RequestModule -->
<g id="node6" class="node">
<title>RequestModule</title>
<polygon fill="#8dd3c7" stroke="#000000" points="1334.1514,-266 1331.1514,-270 1310.1514,-270 1307.1514,-266 1229.8486,-266 1229.8486,-230 1334.1514,-230 1334.1514,-266"/>
<text text-anchor="middle" x="1282" y="-243.8" font-family="Times,serif" font-size="14.00" fill="#000000">RequestModule</text>
</g>
<!-- ShoppingListModule -->
<g id="node7" class="node">
<title>ShoppingListModule</title>
<polygon fill="#8dd3c7" stroke="#000000" points="1333.5014,-342 1330.5014,-346 1309.5014,-346 1306.5014,-342 1198.4986,-342 1198.4986,-306 1333.5014,-306 1333.5014,-342"/>
<text text-anchor="middle" x="1266" y="-319.8" font-family="Times,serif" font-size="14.00" fill="#000000">ShoppingListModule</text>
</g>
<!-- RequestModule&#45;&gt;ShoppingListModule -->
<g id="edge28" class="edge">
<title>RequestModule&#45;&gt;ShoppingListModule</title>
<path fill="none" stroke="#000000" d="M1298.892,-266.0109C1298.892,-266.0109 1298.892,-295.855 1298.892,-295.855"/>
<polygon fill="#000000" stroke="#000000" points="1295.3921,-295.8549 1298.892,-305.855 1302.3921,-295.855 1295.3921,-295.8549"/>
</g>
<!-- RequestModule&#45;&gt;AppModule -->
<g id="edge6" class="edge">
<title>RequestModule&#45;&gt;AppModule</title>
<path fill="none" stroke="#000000" d="M1264.2833,-266.1467C1264.2833,-279.7395 1264.2833,-296 1264.2833,-296 1264.2833,-296 976.8349,-296 976.8349,-296 976.8349,-296 976.8349,-371.8846 976.8349,-371.8846"/>
<polygon fill="#000000" stroke="#000000" points="973.335,-371.8845 976.8349,-381.8846 980.335,-371.8846 973.335,-371.8845"/>
</g>
<!-- RequestService  -->
<g id="node21" class="node">
<title>RequestService </title>
<polygon fill="#fb8072" stroke="#000000" points="1759.0794,-342 1652.9206,-342 1652.9206,-306 1759.0794,-306 1759.0794,-342"/>
<text text-anchor="middle" x="1706" y="-319.8" font-family="Times,serif" font-size="14.00" fill="#000000">RequestService </text>
</g>
<!-- RequestModule&#45;&gt;RequestService  -->
<g id="edge26" class="edge">
<title>RequestModule&#45;&gt;RequestService </title>
<path fill="none" stroke="#000000" stroke-dasharray="5,2" d="M1334.4418,-248C1442.518,-248 1680.0073,-248 1680.0073,-248 1680.0073,-248 1680.0073,-295.9891 1680.0073,-295.9891"/>
<polygon fill="#000000" stroke="#000000" points="1676.5074,-295.989 1680.0073,-305.9891 1683.5074,-295.9891 1676.5074,-295.989"/>
</g>
<!-- ShoppingListModule&#45;&gt;AppModule -->
<g id="edge7" class="edge">
<title>ShoppingListModule&#45;&gt;AppModule</title>
<path fill="none" stroke="#000000" d="M1243.4998,-342.1985C1243.4998,-366.3563 1243.4998,-406 1243.4998,-406 1243.4998,-406 991.8817,-406 991.8817,-406"/>
<polygon fill="#000000" stroke="#000000" points="991.8817,-402.5001 981.8817,-406 991.8817,-409.5001 991.8817,-402.5001"/>
</g>
<!-- ShoppingListService  -->
<g id="node22" class="node">
<title>ShoppingListService </title>
<polygon fill="#fb8072" stroke="#000000" points="1609.4292,-418 1472.5708,-418 1472.5708,-382 1609.4292,-382 1609.4292,-418"/>
<text text-anchor="middle" x="1541" y="-395.8" font-family="Times,serif" font-size="14.00" fill="#000000">ShoppingListService </text>
</g>
<!-- ShoppingListModule&#45;&gt;ShoppingListService  -->
<g id="edge29" class="edge">
<title>ShoppingListModule&#45;&gt;ShoppingListService </title>
<path fill="none" stroke="#000000" stroke-dasharray="5,2" d="M1288.5002,-342.0267C1288.5002,-362.7672 1288.5002,-394 1288.5002,-394 1288.5002,-394 1462.3369,-394 1462.3369,-394"/>
<polygon fill="#000000" stroke="#000000" points="1462.3369,-397.5001 1472.3369,-394 1462.3368,-390.5001 1462.3369,-397.5001"/>
</g>
<!-- UserModule -->
<g id="node8" class="node">
<title>UserModule</title>
<polygon fill="#8dd3c7" stroke="#000000" points="1299.9762,-190 1296.9762,-194 1275.9762,-194 1272.9762,-190 1214.0238,-190 1214.0238,-154 1299.9762,-154 1299.9762,-190"/>
<text text-anchor="middle" x="1257" y="-167.8" font-family="Times,serif" font-size="14.00" fill="#000000">UserModule</text>
</g>
<!-- UserModule&#45;&gt;AuthModule -->
<g id="edge19" class="edge">
<title>UserModule&#45;&gt;AuthModule</title>
<path fill="none" stroke="#000000" d="M1220.277,-190.0109C1220.277,-212.4852 1220.277,-248 1220.277,-248 1220.277,-248 1219.4137,-248 1219.4137,-248"/>
<polygon fill="#000000" stroke="#000000" points="1221.6445,-244.5001 1211.6445,-248 1221.6445,-251.5001 1221.6445,-244.5001"/>
</g>
<!-- UserModule&#45;&gt;RequestModule -->
<g id="edge25" class="edge">
<title>UserModule&#45;&gt;RequestModule</title>
<path fill="none" stroke="#000000" d="M1276.5503,-190.0109C1276.5503,-190.0109 1276.5503,-219.855 1276.5503,-219.855"/>
<polygon fill="#000000" stroke="#000000" points="1273.0504,-219.8549 1276.5503,-229.855 1280.0504,-219.855 1273.0504,-219.8549"/>
</g>
<!-- UserModule&#45;&gt;AppModule -->
<g id="edge8" class="edge">
<title>UserModule&#45;&gt;AppModule</title>
<path fill="none" stroke="#000000" d="M1223.4095,-190.0636C1223.4095,-222.2085 1223.4095,-286 1223.4095,-286 1223.4095,-286 974.3383,-286 974.3383,-286 974.3383,-286 974.3383,-371.9364 974.3383,-371.9364"/>
<polygon fill="#000000" stroke="#000000" points="970.8384,-371.9363 974.3383,-381.9364 977.8384,-371.9364 970.8384,-371.9363"/>
</g>
<!-- UsersService  -->
<g id="node23" class="node">
<title>UsersService </title>
<polygon fill="#fb8072" stroke="#000000" points="409.8493,-266 316.1507,-266 316.1507,-230 409.8493,-230 409.8493,-266"/>
<text text-anchor="middle" x="363" y="-243.8" font-family="Times,serif" font-size="14.00" fill="#000000">UsersService </text>
</g>
<!-- UserModule&#45;&gt;UsersService  -->
<g id="edge31" class="edge">
<title>UserModule&#45;&gt;UsersService </title>
<path fill="none" stroke="#000000" stroke-dasharray="5,2" d="M1217.1444,-190.1025C1217.1444,-201.0859 1217.1444,-213 1217.1444,-213 1217.1444,-213 363,-213 363,-213 363,-213 363,-219.68 363,-219.68"/>
<polygon fill="#000000" stroke="#000000" points="359.5001,-219.6799 363,-229.68 366.5001,-219.68 359.5001,-219.6799"/>
</g>
<!-- AppService -->
<g id="node10" class="node">
<title>AppService</title>
<ellipse fill="#fdb462" stroke="#000000" cx="507" cy="-104" rx="56.7406" ry="18"/>
<text text-anchor="middle" x="507" y="-99.8" font-family="Times,serif" font-size="14.00" fill="#000000">AppService</text>
</g>
<!-- AppService&#45;&gt;AppModule -->
<g id="edge9" class="edge">
<title>AppService&#45;&gt;AppModule</title>
<path fill="none" stroke="#000000" d="M507,-122.4368C507,-188.0055 507,-406 507,-406 507,-406 888.0887,-406 888.0887,-406"/>
<polygon fill="#000000" stroke="#000000" points="888.0887,-409.5001 898.0887,-406 888.0887,-402.5001 888.0887,-409.5001"/>
</g>
<!-- ArticlesService -->
<g id="node11" class="node">
<title>ArticlesService</title>
<ellipse fill="#fdb462" stroke="#000000" cx="1220" cy="-104" rx="70.6162" ry="18"/>
<text text-anchor="middle" x="1220" y="-99.8" font-family="Times,serif" font-size="14.00" fill="#000000">ArticlesService</text>
</g>
<!-- ArticlesService&#45;&gt;AppModule -->
<g id="edge10" class="edge">
<title>ArticlesService&#45;&gt;AppModule</title>
<path fill="none" stroke="#000000" d="M1172.8304,-117.4377C1172.8304,-126.9413 1172.8304,-138 1172.8304,-138 1172.8304,-138 957.769,-138 957.769,-138 957.769,-138 957.769,-371.9917 957.769,-371.9917"/>
<polygon fill="#000000" stroke="#000000" points="954.2691,-371.9916 957.769,-381.9917 961.2691,-371.9917 954.2691,-371.9916"/>
</g>
<!-- UsersModule -->
<g id="node24" class="node">
<title>UsersModule</title>
<polygon fill="#8dd3c7" stroke="#000000" points="1556.9218,-190 1553.9218,-194 1532.9218,-194 1529.9218,-190 1465.0782,-190 1465.0782,-154 1556.9218,-154 1556.9218,-190"/>
<text text-anchor="middle" x="1511" y="-167.8" font-family="Times,serif" font-size="14.00" fill="#000000">UsersModule</text>
</g>
<!-- ArticlesService&#45;&gt;UsersModule -->
<g id="edge33" class="edge">
<title>ArticlesService&#45;&gt;UsersModule</title>
<path fill="none" stroke="#000000" d="M1286.5845,-98C1297.0582,-98 1304.5061,-98 1304.5061,-98 1304.5061,-98 1304.5061,-172 1304.5061,-172 1304.5061,-172 1455.1723,-172 1455.1723,-172"/>
<polygon fill="#000000" stroke="#000000" points="1455.1723,-175.5001 1465.1723,-172 1455.1723,-168.5001 1455.1723,-175.5001"/>
</g>
<!-- AudioStorageService -->
<g id="node12" class="node">
<title>AudioStorageService</title>
<ellipse fill="#fdb462" stroke="#000000" cx="675" cy="-104" rx="93.7591" ry="18"/>
<text text-anchor="middle" x="675" y="-99.8" font-family="Times,serif" font-size="14.00" fill="#000000">AudioStorageService</text>
</g>
<!-- AudioStorageService&#45;&gt;AudioStorageModule -->
<g id="edge17" class="edge">
<title>AudioStorageService&#45;&gt;AudioStorageModule</title>
<path fill="none" stroke="#000000" d="M706.2098,-121.0842C706.2098,-159.2283 706.2098,-248 706.2098,-248 706.2098,-248 959.2529,-248 959.2529,-248"/>
<polygon fill="#000000" stroke="#000000" points="959.2529,-251.5001 969.2529,-248 959.2528,-244.5001 959.2529,-251.5001"/>
</g>
<!-- AudioStorageService&#45;&gt;AppModule -->
<g id="edge11" class="edge">
<title>AudioStorageService&#45;&gt;AppModule</title>
<path fill="none" stroke="#000000" d="M643.7902,-121.2723C643.7902,-183.704 643.7902,-394 643.7902,-394 643.7902,-394 888.1886,-394 888.1886,-394"/>
<polygon fill="#000000" stroke="#000000" points="888.1886,-397.5001 898.1886,-394 888.1886,-390.5001 888.1886,-397.5001"/>
</g>
<!-- RequestService -->
<g id="node13" class="node">
<title>RequestService</title>
<ellipse fill="#fdb462" stroke="#000000" cx="858" cy="-104" rx="71.2036" ry="18"/>
<text text-anchor="middle" x="858" y="-99.8" font-family="Times,serif" font-size="14.00" fill="#000000">RequestService</text>
</g>
<!-- RequestService&#45;&gt;RequestModule -->
<g id="edge27" class="edge">
<title>RequestService&#45;&gt;RequestModule</title>
<path fill="none" stroke="#000000" d="M918.7918,-113.3967C918.7918,-137.9253 918.7918,-202 918.7918,-202 918.7918,-202 1253.1124,-202 1253.1124,-202 1253.1124,-202 1253.1124,-219.8196 1253.1124,-219.8196"/>
<polygon fill="#000000" stroke="#000000" points="1249.6125,-219.8195 1253.1124,-229.8196 1256.6125,-219.8196 1249.6125,-219.8195"/>
</g>
<!-- RequestService&#45;&gt;AppModule -->
<g id="edge12" class="edge">
<title>RequestService&#45;&gt;AppModule</title>
<path fill="none" stroke="#000000" d="M908.4818,-116.7188C908.4818,-116.7188 908.4818,-371.9295 908.4818,-371.9295"/>
<polygon fill="#000000" stroke="#000000" points="904.9819,-371.9294 908.4818,-381.9295 911.9819,-371.9295 904.9819,-371.9294"/>
</g>
<!-- ShoppingListService -->
<g id="node14" class="node">
<title>ShoppingListService</title>
<ellipse fill="#fdb462" stroke="#000000" cx="1039" cy="-104" rx="92.0741" ry="18"/>
<text text-anchor="middle" x="1039" y="-99.8" font-family="Times,serif" font-size="14.00" fill="#000000">ShoppingListService</text>
</g>
<!-- ShoppingListService&#45;&gt;ShoppingListModule -->
<g id="edge30" class="edge">
<title>ShoppingListService&#45;&gt;ShoppingListModule</title>
<path fill="none" stroke="#000000" d="M1088.6031,-119.3456C1088.6031,-148.2749 1088.6031,-208 1088.6031,-208 1088.6031,-208 1226.5421,-208 1226.5421,-208 1226.5421,-208 1226.5421,-295.875 1226.5421,-295.875"/>
<polygon fill="#000000" stroke="#000000" points="1223.0422,-295.875 1226.5421,-305.875 1230.0422,-295.875 1223.0422,-295.875"/>
</g>
<!-- ShoppingListService&#45;&gt;AppModule -->
<g id="edge13" class="edge">
<title>ShoppingListService&#45;&gt;AppModule</title>
<path fill="none" stroke="#000000" d="M952.366,-110.1824C952.366,-110.1824 952.366,-371.6201 952.366,-371.6201"/>
<polygon fill="#000000" stroke="#000000" points="948.8661,-371.6201 952.366,-381.6201 955.8661,-371.6202 948.8661,-371.6201"/>
</g>
<!-- UsersService -->
<g id="node15" class="node">
<title>UsersService</title>
<ellipse fill="#fdb462" stroke="#000000" cx="1371" cy="-104" rx="61.9519" ry="18"/>
<text text-anchor="middle" x="1371" y="-99.8" font-family="Times,serif" font-size="14.00" fill="#000000">UsersService</text>
</g>
<!-- UsersService&#45;&gt;UserModule -->
<g id="edge32" class="edge">
<title>UsersService&#45;&gt;UserModule</title>
<path fill="none" stroke="#000000" d="M1312.4567,-110C1302.4846,-110 1295.2731,-110 1295.2731,-110 1295.2731,-110 1295.2731,-143.7333 1295.2731,-143.7333"/>
<polygon fill="#000000" stroke="#000000" points="1291.7732,-143.7333 1295.2731,-153.7333 1298.7732,-143.7333 1291.7732,-143.7333"/>
</g>
<!-- UsersService&#45;&gt;AppModule -->
<g id="edge14" class="edge">
<title>UsersService&#45;&gt;AppModule</title>
<path fill="none" stroke="#000000" d="M1383.6507,-121.8907C1383.6507,-187.6254 1383.6507,-412 1383.6507,-412 1383.6507,-412 991.7376,-412 991.7376,-412"/>
<polygon fill="#000000" stroke="#000000" points="991.7376,-408.5001 981.7376,-412 991.7375,-415.5001 991.7376,-408.5001"/>
</g>
<!-- AuthService -->
<g id="node17" class="node">
<title>AuthService</title>
<ellipse fill="#fdb462" stroke="#000000" cx="1648" cy="-172" rx="59.1083" ry="18"/>
<text text-anchor="middle" x="1648" y="-167.8" font-family="Times,serif" font-size="14.00" fill="#000000">AuthService</text>
</g>
<!-- AuthService&#45;&gt;AuthModule -->
<g id="edge20" class="edge">
<title>AuthService&#45;&gt;AuthModule</title>
<path fill="none" stroke="#000000" d="M1600.6575,-182.9009C1600.6575,-196.7852 1600.6575,-219 1600.6575,-219 1600.6575,-219 1201.4037,-219 1201.4037,-219 1201.4037,-219 1201.4037,-220.0799 1201.4037,-220.0799"/>
<polygon fill="#000000" stroke="#000000" points="1197.9038,-219.7985 1201.4037,-229.7985 1204.9038,-219.7986 1197.9038,-219.7985"/>
</g>
<!-- JwtStrategy -->
<g id="node18" class="node">
<title>JwtStrategy</title>
<ellipse fill="#fdb462" stroke="#000000" cx="1782" cy="-172" rx="56.7561" ry="18"/>
<text text-anchor="middle" x="1782" y="-167.8" font-family="Times,serif" font-size="14.00" fill="#000000">JwtStrategy</text>
</g>
<!-- JwtStrategy&#45;&gt;AuthModule -->
<g id="edge21" class="edge">
<title>JwtStrategy&#45;&gt;AuthModule</title>
<path fill="none" stroke="#000000" d="M1742.3307,-185.1011C1742.3307,-200.7959 1742.3307,-225 1742.3307,-225 1742.3307,-225 1206.5886,-225 1206.5886,-225 1206.5886,-225 1206.5886,-225.4878 1206.5886,-225.4878"/>
<polygon fill="#000000" stroke="#000000" points="1203.0888,-219.8776 1206.5886,-229.8777 1210.0888,-219.8778 1203.0888,-219.8776"/>
</g>
<!-- CallService -->
<g id="node19" class="node">
<title>CallService</title>
<ellipse fill="#fdb462" stroke="#000000" cx="80" cy="-248" rx="56.1724" ry="18"/>
<text text-anchor="middle" x="80" y="-243.8" font-family="Times,serif" font-size="14.00" fill="#000000">CallService</text>
</g>
<!-- CallService&#45;&gt;CallModule -->
<g id="edge23" class="edge">
<title>CallService&#45;&gt;CallModule</title>
<path fill="none" stroke="#000000" d="M80,-266.0267C80,-286.7672 80,-318 80,-318 80,-318 1018.4078,-318 1018.4078,-318"/>
<polygon fill="#000000" stroke="#000000" points="1018.4079,-321.5001 1028.4078,-318 1018.4078,-314.5001 1018.4079,-321.5001"/>
</g>
</g>
</svg>
